<?xml version="1.0" encoding="utf-8"?>
<!-- Generator: Adobe Illustrator 15.0.2, SVG Export Plug-In  -->
<!DOCTYPE svg PUBLIC "-//W3C//DTD SVG 1.1//EN" "http://www.w3.org/Graphics/SVG/1.1/DTD/svg11.dtd" [
	<!ENTITY ns_flows "http://ns.adobe.com/Flows/1.0/">
]>
<svg version="1.1"
	 xmlns="http://www.w3.org/2000/svg" xmlns:xlink="http://www.w3.org/1999/xlink" xmlns:a="http://ns.adobe.com/AdobeSVGViewerExtensions/3.0/"
	 x="0px" y="0px" width="200px" height="200px" viewBox="-0.081 -36.5 200 200"
	 overflow="visible" enable-background="new -0.081 -36.5 200 200" xml:space="preserve">
<defs>
</defs>
<path d="M166.021,0.026c-1.622,0.471-2.461,2.121-1.932,3.586c0.531,1.471,2.092,2.249,3.5,1.844
	c-0.885,0.258-1.769,0.541-2.646,0.853c-1.393,0.493-2.998-0.203-3.607-1.643c-0.604-1.435,0.145-3.128,1.723-3.684
	C164.033,0.635,165.016,0.318,166.021,0.026z"/>
<path fill="#FFFFFF" d="M169.663,2.034c0,0-1.216,3.171-2.073,3.422c-1.408,0.405-2.969-0.373-3.5-1.844
	c-0.529-1.465,0.31-3.115,1.932-3.586C167.047-0.266,169.663,2.034,169.663,2.034z"/>
<path d="M157.436,3.307c-1.507,0.714-2.083,2.47-1.333,3.839c0.749,1.37,2.414,1.899,3.756,1.267
	c-0.843,0.4-1.677,0.823-2.498,1.264c-1.31,0.703-2.998,0.259-3.817-1.073c-0.82-1.325-0.331-3.11,1.137-3.897
	C155.585,4.214,156.505,3.748,157.436,3.307z"/>
<path fill="#FFFFFF" d="M160.261,2.054c-1.542,0.64-2.21,2.36-1.528,3.77c0.677,1.401,2.316,2.02,3.684,1.452
	c-0.859,0.357-1.715,0.737-2.558,1.137c-1.342,0.633-3.007,0.104-3.756-1.267c-0.75-1.369-0.174-3.125,1.333-3.839
	C158.364,2.867,159.309,2.449,160.261,2.054z"/>
<path d="M149.478,7.851c-1.381,0.937-1.686,2.762-0.734,3.998c0.947,1.238,2.676,1.514,3.903,0.682
	c-0.775,0.521-1.533,1.067-2.276,1.628c-1.184,0.892-2.915,0.711-3.932-0.476c-1.017-1.182-0.809-3.025,0.525-4.03
	C147.786,9.029,148.625,8.428,149.478,7.851z"/>
<path fill="#FFFFFF" d="M152.083,6.188c-1.427,0.86-1.827,2.662-0.943,3.95s2.594,1.652,3.862,0.886
	c-0.798,0.481-1.584,0.986-2.354,1.507c-1.228,0.832-2.956,0.557-3.903-0.682c-0.951-1.236-0.646-3.062,0.734-3.998
	C150.331,7.276,151.199,6.718,152.083,6.188z"/>
<path d="M142.302,13.577c-1.22,1.144-1.229,2.998-0.094,4.067c1.135,1.071,2.88,1.065,3.96,0.058
	c-0.678,0.637-1.343,1.286-1.981,1.965c-1.025,1.067-2.769,1.163-3.96,0.156c-1.193-1.008-1.283-2.854-0.125-4.063
	C140.812,15.01,141.55,14.286,142.302,13.577z"/>
<path fill="#FFFFFF" d="M144.619,11.523c-1.279,1.072-1.39,2.927-0.314,4.053c1.077,1.131,2.816,1.219,3.952,0.271
	c-0.712,0.601-1.41,1.215-2.088,1.854c-1.08,1.008-2.825,1.014-3.96-0.058c-1.135-1.069-1.126-2.924,0.094-4.067
	C143.056,12.87,143.831,12.188,144.619,11.523z"/>
<path d="M136.127,20.386c-1.021,1.325-0.729,3.158,0.565,4.029c1.294,0.875,3.014,0.584,3.915-0.586
	c-0.561,0.741-1.116,1.49-1.639,2.259c-0.834,1.221-2.543,1.598-3.879,0.796c-1.342-0.802-1.724-2.606-0.781-3.989
	C134.887,22.04,135.503,21.208,136.127,20.386z"/>
<path fill="#FFFFFF" d="M138.084,17.981c-1.093,1.269-0.902,3.112,0.338,4.052c1.25,0.945,2.981,0.752,3.947-0.368
	c-0.61,0.703-1.189,1.433-1.762,2.165c-0.901,1.17-2.621,1.461-3.915,0.586c-1.294-0.871-1.586-2.704-0.565-4.029
	C136.763,19.571,137.407,18.76,138.084,17.981z"/>
<path d="M131.144,28.057c-0.796,1.426-0.271,3.174,1.113,3.886c1.389,0.716,3.078,0.189,3.819-1.135
	c-0.465,0.83-0.912,1.673-1.354,2.519c-0.703,1.358-2.385,1.925-3.79,1.246c-1.406-0.68-1.972-2.408-1.227-3.85
	C130.173,29.83,130.648,28.94,131.144,28.057z"/>
<path fill="#FFFFFF" d="M132.676,25.411c-0.87,1.43-0.382,3.183,0.979,3.94c1.363,0.763,3.074,0.269,3.846-0.992
	c-0.479,0.788-0.964,1.618-1.424,2.449c-0.741,1.324-2.431,1.851-3.819,1.135c-1.385-0.712-1.909-2.46-1.113-3.886
	C131.632,27.17,132.139,26.302,132.676,25.411z"/>
<path d="M127.103,36.05c-0.675,1.461-0.036,3.159,1.395,3.786c1.431,0.622,3.088-0.021,3.734-1.417l-1.186,2.637
	c-0.623,1.416-2.276,2.087-3.714,1.482c-1.439-0.603-2.105-2.287-1.461-3.757L127.103,36.05z"/>
<path fill="#FFFFFF" d="M128.393,33.332c-0.709,1.452-0.104,3.168,1.314,3.819c1.42,0.65,3.087,0.038,3.763-1.337l-1.238,2.605
	c-0.646,1.396-2.304,2.039-3.734,1.417c-1.431-0.627-2.069-2.325-1.395-3.786L128.393,33.332z"/>
<path d="M123.587,44.193c-0.603,1.479,0.103,3.143,1.554,3.714c1.45,0.572,3.093-0.139,3.678-1.583l-1.084,2.707
	c-0.572,1.452-2.209,2.18-3.668,1.62c-1.452-0.562-2.172-2.214-1.587-3.696L123.587,44.193z"/>
<path fill="#FFFFFF" d="M124.728,41.441c-0.623,1.474,0.065,3.146,1.51,3.731c1.448,0.588,3.093-0.106,3.695-1.533l-1.114,2.685
	c-0.585,1.444-2.228,2.155-3.678,1.583c-1.451-0.571-2.156-2.235-1.554-3.714L124.728,41.441z"/>
<path d="M120.375,52.397c-0.562,1.481,0.174,3.124,1.633,3.671c1.463,0.55,3.094-0.199,3.65-1.665l-1.038,2.749
	c-0.553,1.47-2.183,2.224-3.646,1.674c-1.462-0.543-2.2-2.187-1.644-3.662L120.375,52.397z"/>
<path fill="#FFFFFF" d="M121.433,49.631c-0.571,1.481,0.157,3.13,1.616,3.682c1.458,0.556,3.093-0.186,3.656-1.646l-1.048,2.735
	c-0.557,1.466-2.188,2.215-3.65,1.665c-1.459-0.547-2.195-2.189-1.633-3.671L121.433,49.631z"/>
<path d="M117.295,60.595c-0.55,1.471,0.183,3.107,1.644,3.66c1.459,0.552,3.096-0.201,3.648-1.68l-1.04,2.766
	c-0.559,1.479-2.197,2.228-3.654,1.669c-1.458-0.56-2.185-2.198-1.631-3.668L117.295,60.595z"/>
<path fill="#FFFFFF" d="M118.33,57.837c-0.553,1.474,0.184,3.113,1.645,3.661c1.461,0.549,3.096-0.207,3.645-1.683l-1.031,2.76
	c-0.553,1.479-2.189,2.231-3.648,1.68c-1.461-0.553-2.193-2.189-1.644-3.66L118.33,57.837z"/>
<path d="M114.201,68.729c-0.57,1.453,0.135,3.096,1.583,3.68c1.447,0.583,3.101-0.143,3.681-1.625l-1.092,2.765
	c-0.594,1.478-2.258,2.189-3.7,1.588c-1.439-0.597-2.126-2.246-1.547-3.692L114.201,68.729z"/>
<path fill="#FFFFFF" d="M115.255,65.998c-0.56,1.461,0.156,3.103,1.611,3.673c1.45,0.566,3.097-0.17,3.665-1.652l-1.067,2.766
	c-0.58,1.482-2.233,2.208-3.681,1.625c-1.448-0.584-2.153-2.227-1.583-3.68L115.255,65.998z"/>
<path d="M110.935,76.738c-0.609,1.42,0.027,3.082,1.448,3.727c1.424,0.643,3.113-0.025,3.744-1.495l-1.202,2.737
	c-0.662,1.468-2.363,2.103-3.773,1.434c-1.405-0.674-2.017-2.342-1.386-3.75L110.935,76.738z"/>
<path fill="#FFFFFF" d="M112.062,74.057c-0.593,1.435,0.072,3.091,1.505,3.709s3.106-0.072,3.716-1.55l-1.155,2.753
	c-0.631,1.47-2.32,2.138-3.744,1.495c-1.421-0.645-2.058-2.307-1.448-3.727L112.062,74.057z"/>
<path d="M107.34,84.523c-0.686,1.369-0.157,3.058,1.216,3.801c1.371,0.741,3.111,0.177,3.836-1.271l-1.389,2.686
	c-0.763,1.436-2.523,1.946-3.871,1.162c-1.351-0.785-1.827-2.483-1.113-3.828L107.34,84.523z"/>
<path fill="#FFFFFF" d="M108.598,81.933c-0.657,1.389-0.085,3.066,1.311,3.773c1.391,0.7,3.11,0.098,3.799-1.36l-1.315,2.706
	c-0.725,1.448-2.465,2.013-3.836,1.271c-1.373-0.743-1.901-2.432-1.216-3.801L108.598,81.933z"/>
<path d="M103.224,91.937c-0.794,1.282-0.44,2.998,0.848,3.886c1.282,0.883,3.086,0.496,3.95-0.902
	c-0.539,0.864-1.088,1.723-1.668,2.566c-0.926,1.37-2.748,1.68-3.989,0.736c-1.241-0.947-1.521-2.671-0.684-3.912
	C102.212,93.537,102.72,92.738,103.224,91.937z"/>
<path fill="#FFFFFF" d="M104.681,89.497c-0.754,1.312-0.33,3.023,0.99,3.853c1.322,0.83,3.101,0.375,3.911-1.043
	c-0.502,0.879-1.024,1.751-1.561,2.614c-0.864,1.398-2.668,1.785-3.95,0.902c-1.288-0.888-1.642-2.604-0.848-3.886
	C103.72,91.132,104.21,90.321,104.681,89.497z"/>
<path d="M98.372,98.723c-0.94,1.14-0.848,2.869,0.283,3.952c1.127,1.075,2.985,0.956,4.057-0.331
	c-0.656,0.798-1.354,1.571-2.062,2.333c-1.144,1.212-2.994,1.225-4.061,0.094c-1.077-1.135-1.077-2.884-0.056-3.964
	C97.16,100.129,97.78,99.443,98.372,98.723z"/>
<path fill="#FFFFFF" d="M100.103,96.53c-0.891,1.19-0.692,2.927,0.498,3.932c1.192,1.011,3.03,0.786,4.026-0.548
	c-0.617,0.824-1.251,1.637-1.916,2.431c-1.071,1.287-2.93,1.406-4.057,0.331c-1.131-1.083-1.224-2.812-0.283-3.952
	C98.968,98.014,99.541,97.28,100.103,96.53z"/>
<path d="M92.565,104.607c-1.107,0.964-1.304,2.681-0.377,3.937c0.929,1.254,2.787,1.453,4.062,0.352
	c-0.787,0.676-1.596,1.334-2.431,1.961c-1.354,1.019-3.195,0.707-4.033-0.612c-0.837-1.314-0.534-3.021,0.627-3.897
	C91.147,105.795,91.867,105.211,92.565,104.607z"/>
<path fill="#FFFFFF" d="M94.628,102.736c-1.067,1.023-1.152,2.764-0.149,3.955c1.008,1.194,2.859,1.273,4.067,0.117
	c-0.747,0.711-1.507,1.412-2.297,2.087c-1.274,1.102-3.133,0.902-4.062-0.352c-0.927-1.256-0.73-2.973,0.377-3.937
	C93.272,104.008,93.955,103.375,94.628,102.736z"/>
<path d="M85.9,109.287c-1.252,0.692-1.808,2.314-1.189,3.748c0.618,1.432,2.409,2.035,3.913,1.203
	c-0.928,0.505-1.872,0.988-2.847,1.416c-1.581,0.707-3.317-0.051-3.803-1.533c-0.484-1.481,0.208-3.047,1.499-3.629
	C84.299,110.132,85.104,109.717,85.9,109.287z"/>
<path fill="#FFFFFF" d="M88.238,107.879c-1.205,0.796-1.631,2.458-0.894,3.837c0.732,1.374,2.562,1.831,3.989,0.891
	c-0.881,0.574-1.783,1.122-2.71,1.631c-1.504,0.832-3.295,0.229-3.913-1.203c-0.618-1.434-0.062-3.056,1.189-3.748
	C86.697,108.849,87.473,108.376,88.238,107.879z"/>
<path d="M78.486,112.203c-1.36,0.339-2.33,1.732-2.136,3.283c0.191,1.544,1.763,2.626,3.463,2.21
	c-1.044,0.249-2.099,0.461-3.165,0.604c-1.741,0.241-3.198-0.988-3.229-2.545c-0.036-1.562,1.068-2.858,2.45-3.053
	C76.749,112.583,77.622,112.411,78.486,112.203z"/>
<path fill="#FFFFFF" d="M81.053,111.451c-1.332,0.464-2.157,1.955-1.812,3.477c0.343,1.522,2.009,2.435,3.656,1.866
	c-1.01,0.349-2.042,0.653-3.085,0.902c-1.7,0.416-3.271-0.666-3.463-2.21c-0.194-1.551,0.775-2.944,2.136-3.283
	C79.351,112,80.208,111.745,81.053,111.451z"/>
<path d="M70.645,112.905c-1.396-0.075-2.738,0.971-3.005,2.513c-0.268,1.533,0.914,3.027,2.664,3.128
	c-1.072-0.066-2.144-0.186-3.204-0.355c-1.726-0.274-2.755-1.867-2.344-3.368c0.413-1.51,1.851-2.429,3.24-2.211
	C68.872,112.753,69.757,112.85,70.645,112.905z"/>
<path fill="#FFFFFF" d="M73.304,112.931c-1.396,0.057-2.619,1.243-2.735,2.799c-0.119,1.555,1.209,2.916,2.964,2.848
	c-1.077,0.049-2.155,0.032-3.229-0.032c-1.75-0.101-2.932-1.595-2.664-3.128c0.267-1.542,1.608-2.588,3.005-2.513
	C71.532,112.957,72.417,112.969,73.304,112.931z"/>
<path d="M62.888,111.299c-1.335-0.473-2.921,0.179-3.59,1.591c-0.665,1.409,0.062,3.153,1.695,3.733
	c-1.006-0.36-1.99-0.763-2.958-1.202c-1.571-0.718-2.146-2.517-1.363-3.862c0.783-1.351,2.422-1.865,3.718-1.277
	C61.21,110.657,62.042,110.998,62.888,111.299z"/>
<path fill="#FFFFFF" d="M65.457,112.084c-1.365-0.348-2.886,0.441-3.427,1.904c-0.543,1.465,0.339,3.135,2.023,3.571
	c-1.033-0.267-2.054-0.58-3.06-0.937c-1.634-0.58-2.36-2.324-1.695-3.733c0.669-1.412,2.255-2.063,3.59-1.591
	C63.734,111.601,64.591,111.864,65.457,112.084z"/>
<path d="M55.753,107.675c-1.182-0.8-2.875-0.559-3.877,0.641c-1.002,1.193-0.726,3.064,0.705,4.035
	c-0.879-0.598-1.734-1.232-2.562-1.905c-1.352-1.097-1.458-3.007-0.34-4.096c1.123-1.086,2.812-1.173,3.909-0.285
	C54.284,106.629,55.005,107.168,55.753,107.675z"/>
<path fill="#FFFFFF" d="M58.055,109.095c-1.247-0.695-2.918-0.314-3.812,0.969c-0.887,1.279-0.459,3.117,1.047,3.959
	c-0.926-0.52-1.833-1.075-2.709-1.672c-1.431-0.971-1.707-2.842-0.705-4.035c1.002-1.199,2.695-1.44,3.877-0.641
	C56.499,108.18,57.269,108.655,58.055,109.095z"/>
<path fill="#FFFFFF" d="M51.671,104.347c-0.93-0.912-2.604-1.067-3.869-0.139c-1.248,0.916-1.425,2.845-0.111,4.148
	c-0.801-0.791-1.529-1.643-2.191-2.515c-1.082-1.423-0.693-3.286,0.649-4.069c1.353-0.79,3.018-0.433,3.848,0.649
	C50.523,103.115,51.079,103.759,51.671,104.347z"/>
<path d="M46.226,95.474c-0.513-1.333-2.042-2.114-3.55-1.697c-1.501,0.413-2.351,2.098-1.733,3.708
	c-0.377-0.993-0.714-1.996-1.007-3.016c-0.478-1.655,0.505-3.263,2.035-3.552c1.535-0.29,2.996,0.613,3.395,1.986
	C45.615,93.773,45.904,94.628,46.226,95.474z"/>
<path fill="#FFFFFF" d="M47.292,97.955c-0.622-1.275-2.21-1.929-3.676-1.387c-1.46,0.535-2.169,2.285-1.413,3.846
	c-0.463-0.962-0.882-1.938-1.261-2.929c-0.617-1.61,0.232-3.295,1.733-3.708c1.508-0.417,3.037,0.364,3.55,1.697
	C46.545,96.319,46.903,97.146,47.292,97.955z"/>
<path d="M44.314,87.684c-0.172-1.415-1.459-2.544-3.018-2.516c-1.561,0.023-2.8,1.452-2.596,3.168
	c-0.123-1.055-0.202-2.118-0.233-3.183c-0.055-1.734,1.317-3.05,2.867-2.931c1.561,0.117,2.735,1.353,2.781,2.768
	C44.142,85.888,44.208,86.789,44.314,87.684z"/>
<path fill="#FFFFFF" d="M44.74,90.356c-0.289-1.397-1.669-2.416-3.222-2.253c-1.552,0.161-2.661,1.689-2.316,3.377
	c-0.209-1.04-0.379-2.085-0.501-3.144c-0.204-1.716,1.035-3.145,2.596-3.168c1.559-0.028,2.846,1.101,3.018,2.516
	C44.417,88.578,44.561,89.469,44.74,90.356z"/>
<path d="M44.44,79.731c0.212-1.39-0.714-2.816-2.221-3.229c-1.504-0.413-3.095,0.63-3.362,2.359
	c0.165-1.061,0.383-2.115,0.652-3.157c0.436-1.698,2.13-2.574,3.582-2.013c1.459,0.562,2.232,2.074,1.889,3.428
	C44.758,77.977,44.578,78.85,44.44,79.731z"/>
<path fill="#FFFFFF" d="M44.155,82.391c0.085-1.407-0.98-2.74-2.52-3.003c-1.537-0.263-3.016,0.927-3.121,2.668
	c0.063-1.07,0.178-2.137,0.343-3.195c0.268-1.729,1.858-2.772,3.362-2.359c1.507,0.413,2.433,1.84,2.221,3.229
	C44.303,80.612,44.208,81.497,44.155,82.391z"/>
<path d="M46.784,72.217c0.608-1.256,0.149-2.897-1.169-3.737c-1.313-0.837-3.141-0.313-3.912,1.266
	c0.47-0.97,0.991-1.914,1.559-2.828c0.914-1.495,2.79-1.825,4.015-0.869c1.232,0.967,1.521,2.643,0.792,3.837
	C47.599,70.639,47.169,71.418,46.784,72.217z"/>
<path fill="#FFFFFF" d="M45.745,74.662c0.477-1.312-0.146-2.894-1.544-3.597c-1.389-0.705-3.158,0.002-3.762,1.653
	c0.37-1.012,0.794-2.003,1.264-2.973c0.771-1.579,2.599-2.103,3.912-1.266c1.318,0.84,1.777,2.481,1.169,3.737
	C46.399,73.015,46.051,73.828,45.745,74.662z"/>
<path d="M51.243,65.693c0.962-1.064,0.954-2.74-0.066-3.921c-1.021-1.182-2.952-1.164-4.104,0.109
	c0.734-0.79,1.44-1.522,2.304-2.291c1.39-1.221,3.333-0.931,4.142,0.398c0.812,1.339,0.572,2.973-0.402,3.839
	C52.509,64.364,51.845,65.045,51.243,65.693z"/>
<path fill="#FFFFFF" d="M49.529,67.755c0.839-1.128,0.711-2.829-0.433-3.9c-1.133-1.062-3.027-0.906-4.073,0.492
	c0.647-0.854,1.329-1.678,2.049-2.466c1.152-1.273,3.083-1.291,4.104-0.109c1.021,1.181,1.028,2.856,0.066,3.921
	C50.638,66.353,50.068,67.044,49.529,67.755z"/>
<path d="M57.244,61.179c1.178-0.524,1.905-1.999,1.55-3.523c-0.347-1.516-2.117-2.401-3.826-1.647
	c1.038-0.457,2.114-0.83,3.217-1.113c1.816-0.466,3.429,0.702,3.51,2.257c0.087,1.562-0.867,2.89-2.106,3.216
	C58.79,60.574,58.001,60.844,57.244,61.179z"/>
<path fill="#FFFFFF" d="M55.05,62.363c1.084-0.709,1.567-2.285,0.971-3.729c-0.594-1.442-2.479-2.027-4.037-1.019
	c0.949-0.612,1.948-1.149,2.983-1.607c1.709-0.754,3.479,0.132,3.826,1.647c0.355,1.524-0.372,2.999-1.55,3.523
	C56.484,61.513,55.749,61.912,55.05,62.363z"/>
<path d="M64.356,59.978c1.226,0.104,2.554-0.772,3.072-2.255c0.517-1.463-0.593-3.184-2.515-3.366
	c1.16,0.114,2.316,0.343,3.453,0.698c0.914,0.286,1.606,0.94,1.912,1.665c0.313,0.73,0.239,1.52-0.161,2.185
	c-0.856,1.305-2.323,1.885-3.452,1.537C65.929,60.213,65.15,60.056,64.356,59.978z"/>
<path fill="#FFFFFF" d="M61.936,59.965c1.258-0.111,2.409-1.259,2.604-2.807c0.2-1.548-1.201-2.983-3.087-2.823
	c1.143-0.101,2.301-0.093,3.46,0.021c1.922,0.183,3.031,1.903,2.515,3.366c-0.519,1.482-1.847,2.359-3.072,2.255
	C63.561,59.901,62.75,59.894,61.936,59.965z"/>
<path d="M70.379,62.682c0.39,0.411,0.949,0.613,1.597,0.698c0.65,0.072,1.414,0.009,2.108-0.352c0.691-0.355,1.161-0.99,1.263-1.793
	c0.114-0.796-0.19-1.735-0.89-2.464c0.864,0.903,1.613,1.933,2.182,3.046c0.465,0.896,0.47,1.876,0.147,2.6
	c-0.313,0.734-0.948,1.212-1.708,1.375c-1.544,0.269-2.956-0.438-3.464-1.384C71.294,63.77,70.869,63.199,70.379,62.682z"/>
<path fill="#FFFFFF" d="M68.673,61.335c0.509,0.303,1.107,0.358,1.762,0.254c0.644-0.11,1.359-0.394,1.918-0.931
	c0.566-0.543,0.835-1.283,0.712-2.08c-0.12-0.787-0.661-1.601-1.508-2.1c1.052,0.62,2.041,1.384,2.9,2.293
	c0.699,0.729,1.004,1.668,0.89,2.464c-0.102,0.803-0.571,1.438-1.263,1.793c-0.694,0.36-1.458,0.424-2.108,0.352
	c-0.647-0.085-1.207-0.287-1.597-0.698C69.889,62.162,69.313,61.712,68.673,61.335z"/>
<path d="M72.536,68.685c-0.004,1.226,1.008,2.545,2.539,2.864c1.518,0.327,3.085-0.87,3.114-2.799
	c-0.017,1.173-0.148,2.314-0.355,3.422c-0.356,1.811-2.037,2.749-3.505,2.226c-1.471-0.52-2.293-1.999-2.048-3.284
	C72.436,70.292,72.528,69.477,72.536,68.685z"/>
<path fill="#FFFFFF" d="M72.317,66.394c0.255,1.107,1.48,2.172,3.045,2.229c1.548,0.067,2.898-1.453,2.475-3.431
	c0.262,1.19,0.365,2.389,0.353,3.558c-0.029,1.929-1.597,3.126-3.114,2.799c-1.531-0.319-2.543-1.639-2.539-2.864
	C72.548,67.891,72.476,67.12,72.317,66.394z"/>
<path d="M70.677,75.966c-0.581,1.287-0.072,2.935,1.282,3.714c1.347,0.775,3.143,0.212,3.86-1.373
	c-0.435,0.979-0.935,1.91-1.439,2.839c-0.844,1.483-2.649,1.918-3.945,1.052c-1.298-0.864-1.693-2.564-0.984-3.82
	C69.887,77.582,70.317,76.782,70.677,75.966z"/>
<path fill="#FFFFFF" d="M71.648,73.51c-0.434,1.296,0.23,2.88,1.642,3.54c1.41,0.669,3.152-0.072,3.723-1.761
	c-0.341,1.041-0.75,2.043-1.192,3.018c-0.718,1.585-2.514,2.148-3.86,1.373c-1.354-0.779-1.863-2.427-1.282-3.714
	C71.045,75.156,71.379,74.333,71.648,73.51z"/>
<path d="M66.498,82.885c-0.873,1.136-0.729,2.859,0.421,3.914c1.146,1.058,3.013,0.89,4.061-0.475
	c-0.642,0.843-1.321,1.651-2.026,2.436c-1.144,1.273-3.015,1.291-4.082,0.155c-1.071-1.139-1.075-2.862-0.114-3.938
	C65.362,84.301,65.948,83.605,66.498,82.885z"/>
<path fill="#FFFFFF" d="M68.069,80.654c-0.797,1.241-0.498,2.901,0.726,3.875c1.217,0.974,3.097,0.627,4.006-0.787
	c-0.566,0.859-1.171,1.748-1.821,2.583c-1.048,1.364-2.915,1.532-4.061,0.475c-1.149-1.055-1.294-2.778-0.421-3.914
	C67.053,82.172,67.551,81.435,68.069,80.654z"/>
<path d="M60.865,88.724c-1.113,0.939-1.341,2.661-0.424,3.927c0.912,1.26,2.763,1.488,4.057,0.4
	c-0.805,0.662-1.615,1.317-2.455,1.929c-1.355,0.999-3.186,0.663-4.02-0.649c-0.84-1.317-0.512-3.026,0.666-3.898
	C59.438,89.886,60.156,89.31,60.865,88.724z"/>
<path fill="#FFFFFF" d="M62.91,86.879c-1.044,1.008-1.151,2.739-0.156,3.948c0.988,1.201,2.852,1.305,4.076,0.126
	c-0.752,0.73-1.535,1.422-2.332,2.098c-1.294,1.088-3.145,0.859-4.057-0.4c-0.917-1.266-0.689-2.987,0.424-3.927
	C61.566,88.128,62.253,87.519,62.91,86.879z"/>
<path d="M54.102,93.417c-1.279,0.741-1.796,2.405-1.101,3.807c0.694,1.394,2.468,1.932,3.916,1.093
	c-0.896,0.513-1.802,1.011-2.723,1.47c-1.491,0.754-3.23,0.131-3.854-1.296c-0.623-1.433-0.021-3.074,1.302-3.747
	C52.478,94.329,53.295,93.879,54.102,93.417z"/>
<path fill="#FFFFFF" d="M56.477,91.965c-1.231,0.8-1.65,2.498-0.885,3.857c0.767,1.359,2.566,1.787,3.972,0.875
	c-0.868,0.564-1.748,1.105-2.646,1.619c-1.448,0.839-3.222,0.301-3.916-1.093c-0.695-1.401-0.179-3.065,1.101-3.807
	C54.912,92.956,55.702,92.471,56.477,91.965z"/>
<path d="M46.605,96.986c-1.388,0.539-2.15,2.112-1.665,3.597c0.481,1.482,2.153,2.276,3.703,1.673
	c-0.961,0.369-1.927,0.72-2.904,1.04c-1.576,0.527-3.205-0.341-3.616-1.849c-0.407-1.506,0.427-3.041,1.84-3.516
	C44.849,97.639,45.73,97.318,46.605,96.986z"/>
<path fill="#FFFFFF" d="M49.194,95.908c-1.357,0.605-2.037,2.219-1.481,3.68c0.55,1.457,2.257,2.16,3.779,1.484
	c-0.938,0.42-1.891,0.812-2.849,1.184c-1.55,0.604-3.222-0.19-3.703-1.673c-0.485-1.484,0.277-3.058,1.665-3.597
	C47.474,96.647,48.342,96.29,49.194,95.908z"/>
<path d="M38.641,99.424c-1.452,0.328-2.429,1.787-2.164,3.322c0.263,1.541,1.804,2.552,3.427,2.186
	c-1.005,0.224-2.01,0.436-3.024,0.613c-1.635,0.297-3.129-0.8-3.314-2.348c-0.188-1.551,0.858-2.949,2.323-3.216
	C36.808,99.82,37.726,99.625,38.641,99.424z"/>
<path fill="#FFFFFF" d="M41.36,98.728c-1.435,0.402-2.338,1.901-1.999,3.428c0.339,1.519,1.927,2.462,3.528,2.014
	c-0.99,0.279-1.986,0.525-2.985,0.763c-1.623,0.366-3.164-0.645-3.427-2.186c-0.265-1.535,0.712-2.994,2.164-3.322
	C39.551,99.208,40.458,98.984,41.36,98.728z"/>
<path d="M30.417,100.687c-1.478,0.112-2.655,1.407-2.63,2.964c0.025,1.562,1.406,2.795,3.07,2.67
	c-1.029,0.076-2.059,0.134-3.092,0.156c-1.673,0.047-2.985-1.274-2.921-2.831c0.058-1.561,1.304-2.775,2.781-2.817
	C28.558,100.807,29.488,100.756,30.417,100.687z"/>
<path fill="#FFFFFF" d="M33.204,100.397c-1.474,0.192-2.583,1.541-2.473,3.097c0.11,1.557,1.548,2.721,3.196,2.506
	c-1.018,0.135-2.045,0.234-3.069,0.321c-1.664,0.125-3.045-1.107-3.07-2.67c-0.025-1.557,1.152-2.852,2.63-2.964
	C31.346,100.608,32.277,100.519,33.204,100.397z"/>
<path d="M22.154,100.664c-1.461-0.132-2.832,0.935-3.081,2.473c-0.25,1.541,0.904,3.002,2.581,3.155
	c-1.033-0.098-2.068-0.212-3.101-0.375c-1.674-0.252-2.73-1.798-2.377-3.313c0.355-1.521,1.787-2.486,3.23-2.272
	C20.316,100.472,21.232,100.574,22.154,100.664z"/>
<path fill="#FFFFFF" d="M24.926,100.823c-1.471-0.041-2.777,1.107-2.93,2.66c-0.15,1.55,1.086,2.939,2.764,2.985
	c-1.033-0.022-2.071-0.092-3.106-0.177c-1.677-0.153-2.831-1.614-2.581-3.155c0.249-1.538,1.62-2.604,3.081-2.473
	C23.074,100.738,23.998,100.801,24.926,100.823z"/>
<path d="M14.132,99.16c-1.382-0.406-2.926,0.339-3.508,1.787c-0.58,1.448,0.252,3.145,1.893,3.628
	c-1.008-0.3-2.007-0.643-2.998-1.023c-1.604-0.625-2.299-2.375-1.596-3.773c0.702-1.389,2.304-2.011,3.633-1.497
	C12.403,98.605,13.26,98.902,14.132,99.16z"/>
<path fill="#FFFFFF" d="M16.786,99.843c-1.416-0.315-2.909,0.564-3.371,2.051c-0.462,1.492,0.492,3.097,2.153,3.467
	c-1.022-0.224-2.038-0.484-3.051-0.786c-1.641-0.483-2.473-2.18-1.893-3.628c0.582-1.448,2.126-2.193,3.508-1.787
	C15.003,99.42,15.89,99.647,16.786,99.843z"/>
<path d="M6.796,95.958c-1.203-0.724-2.876-0.405-3.828,0.831c-0.953,1.232-0.589,3.102,0.905,4.006
	c-0.914-0.56-1.812-1.147-2.671-1.8c-1.411-1.051-1.58-2.956-0.509-4.078c1.08-1.135,2.772-1.278,3.893-0.449
	C5.293,95.005,6.039,95.493,6.796,95.958z"/>
<path fill="#FFFFFF" d="M9.157,97.237c-1.278-0.609-2.913-0.14-3.741,1.187c-0.823,1.32-0.288,3.146,1.274,3.9
	c-0.96-0.462-1.896-0.979-2.816-1.529c-1.494-0.904-1.858-2.773-0.905-4.006c0.952-1.236,2.625-1.555,3.828-0.831
	C7.563,96.416,8.346,96.847,9.157,97.237z"/>
<path fill="#BCBEC0" d="M181.756,78.186c-2.745-7.268-10.223-12.592-16.8-14.667c-6.57-2.075-20.76,4.844-25.254,7.265
	c-4.497,2.425-12.63,7.27-21.104,4.152c-8.478-3.113-12.325-13.145-12.325-13.145s-1.965-6.162,2.917-5.104
	c3.373,0.731,8.578,12.302,15.288,12.024c8.304-0.349,19.031-10.036,26.295-11.421c7.265-1.384,13.013-2.183,20.067,1.038
	c7.057,3.227,11.08,15.951,11.47,19.817c0.015,0.149-0.097,0.281-0.242,0.294c-0.124,0.015-0.239-0.057-0.281-0.172L181.756,78.186z
	"/>
<path fill="#BCBEC0" d="M198.39,113.411c-2.522,3.947-7.273,5.408-10.618,3.272c-3.353-2.142-4.023-7.067-1.495-11.016
	c2.517-3.945,7.266-5.408,10.621-3.265C200.244,104.539,200.915,109.468,198.39,113.411z"/>
<path fill="#939598" d="M190.335,118.765c0,0-17.793,4.864-31.373-6.921c-7.662-6.646-16.588-19.261-17.184-38.98
	C140.857,42.415,170.96,1.584,170.96,1.584s-28.605,44.755-13.841,85.349C165.318,109.481,179.264,115.073,190.335,118.765"/>
<path fill="#FFFFFF" d="M197.173,111.617c0,3.055-2.475,5.535-5.537,5.535c-3.053,0-5.535-2.48-5.535-5.535
	c0-3.062,2.482-5.536,5.535-5.536C194.699,106.081,197.173,108.554,197.173,111.617z"/>
</svg>
