<?xml version="1.0" encoding="utf-8"?>
<!-- Generator: Adobe Illustrator 15.0.2, SVG Export Plug-In  -->
<!DOCTYPE svg PUBLIC "-//W3C//DTD SVG 1.1//EN" "http://www.w3.org/Graphics/SVG/1.1/DTD/svg11.dtd" [
	<!ENTITY ns_flows "http://ns.adobe.com/Flows/1.0/">
]>
<svg version="1.1"
	 xmlns="http://www.w3.org/2000/svg" xmlns:xlink="http://www.w3.org/1999/xlink" xmlns:a="http://ns.adobe.com/AdobeSVGViewerExtensions/3.0/"
	 x="0px" y="0px" width="200px" height="200px" viewBox="0 0 200 200" overflow="visible" enable-background="new 0 0 200 200"
	 xml:space="preserve">
<defs>
</defs>
<rect display="none" fill="#FFFFFF" width="200" height="200"/>
<rect y="0" display="none" fill="#FFFFFF" width="200" height="200"/>
<circle fill="#FFF4E6" cx="98.448" cy="100.322" r="65.983"/>
<line fill="#FBB040" stroke="#FECA83" stroke-width="5.676" stroke-linecap="round" stroke-linejoin="round" stroke-miterlimit="10" x1="128.484" y1="114.278" x2="147.404" y2="114.278"/>
<line fill="#FBB040" stroke="#FECA83" stroke-width="5.676" stroke-linecap="round" stroke-linejoin="round" stroke-miterlimit="10" x1="116.241" y1="131.608" x2="130.321" y2="144.246"/>
<polygon fill="#F15A29" stroke="#F15A29" stroke-width="1.419" stroke-miterlimit="10" points="121.438,17.352 129.212,40.186 
	151.661,37.177 "/>
<path fill="#FFFFFF" d="M98.618,179.027c-10.266,0-20.239-1.992-29.649-5.92l5.937-14.218c7.609,3.178,15.738,4.759,24.008,4.73
	c33.982-0.161,61.5-27.937,61.341-61.92c-0.16-33.985-27.981-61.535-61.918-61.342c-33.983,0.159-61.501,27.935-61.342,61.919
	c0.066,14.12,5.027,27.895,13.968,38.786c0.403,0.491,0.809,0.97,1.222,1.444l-11.599,10.141c-0.522-0.596-1.033-1.2-1.535-1.812
	c-11.178-13.616-17.381-30.836-17.464-48.485c-0.198-42.48,34.199-77.201,76.679-77.398c0.122-0.001,0.247-0.001,0.369-0.001
	c42.31,0,76.83,34.321,77.028,76.679c0.199,42.478-34.198,77.199-76.676,77.398C98.864,179.027,98.741,179.027,98.618,179.027z"/>
<linearGradient id="SVGID_2_" gradientUnits="userSpaceOnUse" x1="44.2764" y1="156.3369" x2="153.0746" y2="47.5386">
	<stop  offset="0" style="stop-color:#F26522"/>
	<stop  offset="1" style="stop-color:#FBB040;stop-opacity:0.58"/>
</linearGradient>
<path fill="url(#SVGID_2_)" d="M98.618,179.027c-10.266,0-20.239-1.992-29.649-5.92l5.937-14.218
	c7.609,3.178,15.738,4.759,24.008,4.73c33.982-0.161,61.5-27.937,61.341-61.92c-0.16-33.985-27.981-61.535-61.918-61.342
	c-33.983,0.159-61.501,27.935-61.342,61.919c0.066,14.12,5.027,27.895,13.968,38.786c0.403,0.491,0.809,0.97,1.222,1.444
	l-11.599,10.141c-0.522-0.596-1.033-1.2-1.535-1.812c-11.178-13.616-17.381-30.836-17.464-48.485
	c-0.198-42.48,34.199-77.201,76.679-77.398c0.122-0.001,0.247-0.001,0.369-0.001c42.31,0,76.83,34.321,77.028,76.679
	c0.199,42.478-34.198,77.199-76.676,77.398C98.864,179.027,98.741,179.027,98.618,179.027z"/>
<line fill="#FBB040" stroke="#F15A29" stroke-width="11.352" stroke-miterlimit="10" x1="62.727" y1="37.223" x2="108.77" y2="176.21"/>
<line fill="#F7941E" x1="81.657" y1="118.068" x2="142.674" y2="41.434"/>
<polygon fill="#FDBC60" points="93.008,111.914 78.818,106.238 138.233,37.898 139.362,56.101 "/>
<path fill="#FBB040" d="M42.397,54.205c4.257,2.838,31.69,0.004,31.69,0.004l1.019-6.601l-4.329-20.364"/>
<line fill="#F7941E" stroke="#F7941E" stroke-width="11.352" stroke-miterlimit="10" x1="52.793" y1="41.479" x2="98.836" y2="180.467"/>
<line fill="#F7941E" stroke="#F7941E" stroke-width="11.352" stroke-miterlimit="10" x1="73.616" y1="110.973" x2="134.633" y2="34.339"/>
<path fill="#F7941E" stroke="#F7941E" stroke-width="1.419" stroke-miterlimit="10" d="M32.465,49.948
	c4.257,2.838,26.961,9.933,26.961,9.933l11.352-32.637"/>
<path fill="#F15A29" d="M113.82,176.243l0.946-16.083l-7.568-3.783l-7.568,8.514"/>
<path fill="#F7941E" d="M121.626,181.915c-4.257-2.838-28.145-20.575-28.145-20.575l-9.933,23.886"/>
<path fill="none" stroke="#F7941E" stroke-width="18.447" stroke-linejoin="round" stroke-miterlimit="10" d="M36.082,156.568
	c-0.56-0.64-1.108-1.289-1.649-1.947c-11.678-14.225-18.724-32.406-18.818-52.245c-0.213-45.847,36.778-83.185,82.624-83.4
	c45.846-0.213,83.183,36.777,83.399,82.623c0.213,45.845-36.777,83.184-82.623,83.398c-11.46,0.054-22.39-2.218-32.341-6.373"/>
<polygon fill="#00A651" points="144.837,105.318 147.27,97.099 147.431,105.67 152.286,98.606 149.791,106.805 156.59,101.586 
	151.683,108.616 159.763,105.753 152.924,110.92 161.493,110.695 153.392,113.497 161.611,115.93 153.04,116.091 160.106,120.945 
	151.905,118.45 157.125,125.25 150.095,120.343 152.958,128.424 147.79,121.583 148.016,130.153 145.214,122.051 142.781,130.272 
	142.62,121.7 137.765,128.766 140.26,120.565 133.459,125.784 138.367,118.755 130.287,121.617 137.126,116.45 128.557,116.676 
	136.659,113.874 128.439,111.44 137.01,111.279 129.944,106.425 138.145,108.92 132.926,102.12 139.954,107.027 137.093,98.947 
	142.261,105.786 142.035,97.218 "/>
<line fill="#FBB040" stroke="#FECA83" stroke-width="5.676" stroke-linecap="round" stroke-linejoin="round" stroke-miterlimit="10" x1="126.886" y1="88.781" x2="144.624" y2="82.196"/>
<polygon fill="#00A651" points="136.953,71.485 136.375,62.934 139.509,70.912 141.601,62.6 142.115,71.155 146.674,63.896 
	144.52,72.194 151.1,66.699 146.486,73.923 154.44,70.729 147.82,76.174 156.373,75.595 148.394,78.729 156.707,80.822 
	148.15,81.336 155.41,85.896 147.114,83.74 152.609,90.32 145.385,85.705 148.579,93.66 143.131,87.041 143.712,95.594 
	140.578,87.615 138.484,95.929 137.969,87.371 133.41,94.63 135.565,86.334 128.986,91.827 133.6,84.605 125.644,87.798 
	132.265,82.352 123.712,82.932 131.692,79.798 123.377,77.707 131.934,77.191 124.674,72.632 132.972,74.786 127.476,68.209 
	134.701,72.821 131.509,64.866 "/>
<polygon fill="#00A651" points="87.752,47.558 87.175,39.007 90.308,46.985 92.4,38.673 92.914,47.229 97.474,39.97 95.319,48.268 
	101.898,42.772 97.285,49.997 105.239,46.802 98.62,52.248 107.172,51.668 99.193,54.803 107.506,56.896 98.949,57.41 
	106.209,61.971 97.913,59.814 103.409,66.394 96.184,61.779 99.377,69.733 93.93,63.115 94.511,71.668 91.376,63.688 89.284,72.003 
	88.769,63.445 84.209,70.704 86.364,62.408 79.786,67.901 84.399,60.679 76.443,63.872 83.064,58.425 74.512,59.005 82.491,55.872 
	74.176,53.781 82.733,53.265 75.474,48.706 83.771,50.86 78.275,44.283 85.5,48.895 82.308,40.94 "/>
<polygon fill="#00A651" points="125.562,132.176 128.181,124.014 128.148,132.587 133.161,125.632 130.48,133.774 137.398,128.709 
	132.333,135.627 140.476,132.947 133.521,137.959 142.093,137.927 133.931,140.545 142.093,143.163 133.521,143.13 140.476,148.143 
	132.333,145.464 137.398,152.38 130.48,147.315 133.161,155.458 128.148,148.503 128.181,157.077 125.562,148.914 122.945,157.077 
	122.977,148.503 117.964,155.458 120.643,147.315 113.727,152.38 118.792,145.464 110.649,148.143 117.604,143.13 109.032,143.163 
	117.194,140.545 109.032,137.927 117.604,137.959 110.649,132.947 118.792,135.627 113.727,128.709 120.643,133.774 
	117.964,125.632 122.977,132.587 122.945,124.014 "/>
</svg>
