<?xml version="1.0" encoding="utf-8"?>
<!-- Generator: Adobe Illustrator 15.0.2, SVG Export Plug-In  -->
<!DOCTYPE svg PUBLIC "-//W3C//DTD SVG 1.1//EN" "http://www.w3.org/Graphics/SVG/1.1/DTD/svg11.dtd" [
	<!ENTITY ns_flows "http://ns.adobe.com/Flows/1.0/">
]>
<svg version="1.1"
	 xmlns="http://www.w3.org/2000/svg" xmlns:xlink="http://www.w3.org/1999/xlink" xmlns:a="http://ns.adobe.com/AdobeSVGViewerExtensions/3.0/"
	 x="0px" y="0px" width="200px" height="200px" viewBox="-38.701 -2 200 200"
	 overflow="visible" enable-background="new -38.701 -2 200 200" xml:space="preserve">
<defs>
</defs>
<path fill="#00A651" d="M98.701,46.792c2.168-2.155,3.573-4.452,4.728-6.813c1.129-2.364,1.926-4.802,2.476-7.293
	c0.573-2.44,1.021-5.157-0.28-8.173c-0.613-1.508-1.606-3.098-3.225-4.759c-0.815-0.825-1.766-1.671-3.02-2.505
	c-1.246-0.812-2.776-1.727-4.682-2.209c0.812,0.812,0.812,1.45,0.871,2.093c0.016,0.631-0.021,1.239-0.124,1.842l-0.609,3.569
	c-0.423,2.404-0.598,4.803-0.62,7.48c0.005,2.63,0.295,5.325,0.953,8.096C95.861,40.904,96.841,43.756,98.701,46.792z"/>
<path fill="#00A651" d="M125.389,35.302c-0.979-2.591-2.57-4.825-4.383-6.933c-1.831-2.105-3.936-4.052-6.246-5.882
	c-2.245-1.809-4.85-3.716-8.837-4.744c-1.962-0.534-4.246-0.894-6.981-0.918c-1.369-0.002-2.831,0.061-4.477,0.313
	c-1.608,0.264-3.498,0.634-5.15,1.492c1.349-0.003,2.03,0.383,2.745,0.73c0.674,0.372,1.299,0.761,1.878,1.181l3.42,2.514
	c2.292,1.705,4.729,3.252,7.561,4.872c2.786,1.577,5.818,3.026,9.151,4.297C117.439,33.476,121.046,34.603,125.389,35.302z"/>
<path fill="#00A651" d="M111.215,103.102c0.257-1.115,0.141-2.164-0.116-3.191c-0.261-1.026-0.695-2.022-1.247-2.998
	c-0.534-0.959-1.204-1.999-2.737-2.857c-0.751-0.435-1.694-0.838-2.933-1.163c-0.626-0.159-1.309-0.304-2.127-0.396
	c-0.803-0.084-1.77-0.161-2.754-0.02c0.617,0.155,0.821,0.384,1.052,0.601c0.211,0.222,0.386,0.444,0.536,0.674l0.878,1.369
	c0.58,0.925,1.268,1.806,2.12,2.76c0.841,0.932,1.831,1.844,3.005,2.721C108.087,101.477,109.425,102.33,111.215,103.102z"/>
<path fill="#00A651" d="M87.226,39.038c0.606-2.66,0.464-5.19,0.05-7.686c-0.439-2.491-1.205-4.937-2.229-7.341
	c-0.979-2.367-2.233-4.937-5.226-7.172c-1.458-1.121-3.312-2.192-5.755-3.111c-1.234-0.452-2.589-0.875-4.215-1.185
	c-1.601-0.287-3.513-0.572-5.494-0.348c1.221,0.443,1.594,1.014,2.048,1.564c0.398,0.555,0.72,1.107,1.003,1.675l1.632,3.386
	c1.085,2.282,2.376,4.478,3.995,6.864c1.6,2.334,3.5,4.631,5.771,6.87C81.111,34.783,83.714,36.978,87.226,39.038z"/>
<path fill="#00A651" d="M88.806,16.241c1.849,4.882,2.804,9.725,3.45,14.562c0.618,4.839,0.847,9.67,0.783,14.496
	c-0.038,4.728-0.275,9.926-2.589,14.91c-1.111,2.507-2.668,5.01-4.956,7.367c-1.18,1.172-2.483,2.318-4.132,3.322
	c-1.645,0.939-3.61,1.976-5.901,2.035c1.14-1.141,1.321-2.32,1.56-3.474c0.2-1.155,0.33-2.293,0.372-3.434l0.312-6.837
	c0.181-4.613,0.652-9.099,1.364-14.032c0.741-4.834,1.817-9.666,3.324-14.493C83.952,25.839,85.861,21.022,88.806,16.241z"/>
<path fill="#00A651" d="M84.266,142.365c2.024-1.221,3.167-2.754,4.343-4.248c1.142-1.506,2.153-3.049,3.116-4.611
	c0.957-1.564,1.889-3.137,2.804-4.727c0.917-1.584,1.812-3.18,2.824-4.861c2.039-3.309,4.359-6.521,7.028-9.629
	c2.697-3.096,5.663-6.111,9.48-8.83c-0.408,3.818-1.599,7.377-3.02,10.855c-1.458,3.473-3.219,6.846-5.247,10.139
	c-1.974,3.268-4.541,6.748-7.921,9.719c-1.704,1.492-3.615,2.904-5.84,4.08c-1.122,0.58-2.297,1.115-3.579,1.506
	C86.996,142.139,85.613,142.475,84.266,142.365z"/>
<path fill="#00A651" d="M74.037,78.384c3.384,0.39,5.99-0.488,7.901-1.67c1.934-1.208,3.474-2.776,4.907-4.497
	c1.402-1.742,2.718-3.6,3.936-5.548c0.64-0.945,1.224-1.988,1.823-2.93l0.974-1.601c0.278-0.508,0.581-1.007,0.9-1.502
	c2.467-4.091,4.865-8.178,7.186-12.35c2.312-4.2,4.616-8.385,6.678-13.121c2.754,4.685,2.858,9.896,2.197,14.82
	c-0.783,4.951-2.625,9.763-5.236,14.274c-0.33,0.578-0.665,1.151-1.034,1.714l-1.039,1.586c-0.767,1.179-1.622,2.229-2.514,3.332
	c-1.852,2.153-3.99,4.246-6.703,6.058c-2.675,1.796-5.979,3.415-9.867,3.973C80.307,81.519,75.948,80.588,74.037,78.384z"/>
<path fill="#00A651" d="M104.246,103.615c0.964,4.338-1.218,8.229-4.882,8.697c-3.668,0.465-7.423-2.674-8.394-7.01
	c-0.969-4.34,1.213-8.229,4.882-8.696C99.516,96.144,103.277,99.283,104.246,103.615z"/>
<path fill="#FFFFFF" d="M101.736,20.585c-8.986,0.452-9.584,8.577-8.986,11.284c0.6,2.712,3-3.61,3-3.61l2.393,6.322l1.79-7.224
	l3.001,6.771l0.595-6.322l4.791,4.97l-1.197-5.869l7.188,4.062C114.31,30.969,110.718,20.134,101.736,20.585z"/>
<path fill="#FFFFFF" d="M80.004,20.077c-8.986,0.45-9.585,8.576-8.986,11.285c0.595,2.706,2.996-3.611,2.996-3.611l2.396,6.317
	l1.797-7.224l2.991,6.775l0.604-6.319l4.785,4.963l-1.195-5.869l7.185,4.063C92.575,30.458,88.991,19.625,80.004,20.077z"/>
<path fill="#8B5E3C" d="M110.365,92.062c-5.645-0.879-11.354-1.479-17.098-1.943c-5.726-0.446-11.463-0.797-17.266-0.935
	c-2.897-0.063-5.812-0.077-8.786,0.075c-0.235,0.015-0.471,0.039-0.699,0.054c1.542-1.676,2.923-3.414,4.218-5.167
	c2.66-3.653,4.938-7.425,6.868-11.279C74.959,76.469,72,79.927,68.756,83.18c-2.727,2.697-5.716,5.279-9.021,7.351
	c-0.324,0.146-0.685,0.34-1.059,0.64c-0.297,0.176-0.58,0.375-0.889,0.54c-1.89,0.999-4.529,1.938-6.865,2.923l-7.223,2.894
	l-8.249,3.241c-0.134-1.112-0.251-2.225-0.414-3.337c-0.983-6.517-2.046-12.984-3.196-19.464
	c-2.195-11.936-3.872-22.479-7.174-34.086c2.118-3.787,5.904-8.019,10.173-11.745c4.654-4.042,13.549-10.491,18.973-13.934
	c2.685-1.727,5.579-3.282,8.512-4.861c0.891-0.48,1.801-0.938,2.704-1.41c1.829,0.758,4.174,1.974,5.484,2.467
	c1.676,0.657,3.413,1.366,4.505,2.404c1.062,1.092,1.806,2.509,2.479,3.878c0.651,1.387,1.211,2.807,1.682,4.245
	c-0.258-1.47-0.607-2.932-1.053-4.385c-0.492-1.453-0.97-2.898-2.032-4.307c-1.188-1.404-2.937-2.271-4.598-3.12
	c-1.555-0.761-3.148-1.425-4.812-2.048c0.789-0.415,1.584-0.837,2.377-1.247c3.066,0.242,6.642,1.135,9.657,1.402
	c3.582,1.214,12.305,4.467,13.771,5.013c1.672,0.662,3.412,1.369,4.501,2.408c1.075,1.093,1.814,2.508,2.478,3.879
	c0.652,1.386,1.211,2.805,1.693,4.245c-0.265-1.472-0.611-2.934-1.063-4.389c-0.487-1.453-0.962-2.895-2.025-4.299
	c-1.195-1.405-2.94-2.275-4.599-3.129c-1.123-0.546-3.592-1.88-5.678-2.92c0.61,0.064,1.229,0.12,1.835,0.188
	c6.937,0.83,13.856,1.957,20.433,3.956c-6.243-2.544-13.064-4.279-19.935-5.703c-3.449-0.707-7.05-0.77-10.546-1.312
	c-2.815-0.43-5.166-0.518-7.848-0.72c6.178-3.036,18.418-7.729,17.746-8.383c-0.686-0.672-12.914,4.856-19.222,7.511
	c-3.152,1.331-6.283,2.692-9.391,4.085c-3.1,1.389-6.248,2.805-9.235,4.423c-5.987,3.203-10.574,7.879-15.804,11.731
	c-8.017,5.951-4.654,6.087-12.35,12.311l-0.429-1.035l-0.175-0.135L0,21.542l21.266,18.223c2.82,12.722,4.252,25.689,5.589,38.592
	c0.639,6.482,1.187,12.995,1.65,19.468c0.418,6.409,0.302,12.848-0.12,19.278c-0.892,12.869-3.019,25.705-5.818,38.451
	c-2.832,12.713-6.312,25.473-10.505,37.836l13.883,2.434c1.747-6.797,3.235-13.568,4.552-20.34
	c5.952-4.586,12.515-8.99,19.341-12.971c7.55-4.363,15.572-8.322,24.202-11.232c9.063-2.828,17.753-6.461,25.952-10.438
	c8.21-4,7.323-4.992-1.199-1.545c-6.05,2.432-12.187,4.621-18.505,6.49c0.836-0.742,1.655-1.541,2.461-2.504
	c2.445-2.945,4.691-6.076,6.524-9.459c0.911-1.686,1.716-3.459,2.341-5.26c0.635-1.764,1.252-3.541,1.84-5.322
	c1.159-3.568,2.288-7.158,3.028-10.832c-1.097,3.576-2.564,7.018-4.059,10.436c-0.757,1.705-1.538,3.396-2.34,5.084
	c-0.778,1.664-1.702,3.219-2.733,4.727c-2.065,3.002-4.511,5.742-7.13,8.291c-2.613,2.529-5.462,4.945-8.336,7.002l0.104,0.088
	c-9.323,2.508-18.019,6.082-26.261,10.088c-4.628,2.275-9.081,4.67-13.43,7.211c0.467-2.879,0.922-5.762,1.333-8.654
	c1.828-13.088,2.974-26.25,2.84-39.453c-0.035-2.988-0.156-5.979-0.341-8.971l11.338-6.188l6.62-3.671
	c2.194-1.28,4.374-2.321,6.709-3.941c0.569-0.415,1.06-0.855,1.588-1.285c-0.074,0.171-0.183,0.283-0.218,0.326
	c0.029-0.021,0.055-0.043,0.112-0.064c0.325-0.159,0.891-0.326,1.479-0.461c1.188-0.269,2.529-0.448,3.889-0.597
	c2.722-0.282,5.544-0.426,8.375-0.508c3.058-0.087,6.136-0.106,9.222-0.087c1.445,0.413,2.895,0.868,4.274,1.389
	c1.678,0.657,3.418,1.364,4.506,2.404c1.063,1.097,1.807,2.509,2.472,3.88c0.654,1.385,1.211,2.807,1.688,4.245
	c-0.263-1.469-0.611-2.934-1.062-4.389c-0.484-1.453-0.962-2.896-2.023-4.301c-1.188-1.404-2.938-2.272-4.599-3.127
	c-0.011-0.005-0.027-0.011-0.043-0.017c0.881,0.017,1.772,0.017,2.65,0.042c5.7,0.157,11.4,0.459,17.056,1.035
	C111.944,93.125,113.183,92.5,110.365,92.062z"/>
<path fill="#8B5E3C" d="M62.167,93.499c0,0,0,0.005-0.009,0.005C62.085,93.562,62.104,93.537,62.167,93.499z"/>
</svg>
