<?xml version="1.0" encoding="utf-8"?>
<!-- Generator: Adobe Illustrator 15.0.2, SVG Export Plug-In . SVG Version: 6.00 Build 0)  -->
<!DOCTYPE svg PUBLIC "-//W3C//DTD SVG 1.1//EN" "http://www.w3.org/Graphics/SVG/1.1/DTD/svg11.dtd">
<svg version="1.1" id="Layer_1" xmlns="http://www.w3.org/2000/svg" xmlns:xlink="http://www.w3.org/1999/xlink" x="0px" y="0px"
	 width="200px" height="200px" viewBox="0 0 200 200" enable-background="new 0 0 200 200" xml:space="preserve">
<path fill="#CEECF3" d="M5.986,16.333c0,0-8,0,6,38.667s12.667,59.334,19.333,88.667s6.667,40,9.333,45.333s10,8,10,8
	s50-15.333,50.666-18c0.668-2.667,10.668,2.667,46-10c35.334-12.667,55.334-20.666,46.668-41.333
	c-8.668-20.667-4.668-29.333-29.334-33.333s-42.666-15.333-53.334-16c-10.666-0.667,6.666,2,19.334-16c12.666-18,18-32-2-38.667
	s-8-11.333-34.666-8C67.319,19,61.319,31.667,43.319,27S5.986,16.333,5.986,16.333z"/>
<path fill="#EFF8F9" d="M132.652,99.666c0,0-2-6,15.334,8c17.332,14,18.666,24.666,8,29.333c-10.668,4.667-26.668,8-40.668,16
	s-48.666,32-61.999,38.667s12.667-44.667,29.333-54c2.908-1.629,4.667-18,8.667-18s33.999-7.334,33.999-7.334l4.668-13.333"/>
<path fill="#754C29" d="M90.653,123.666c4.667,0.667,9.999,6.666,21.333-1.334c10.436-7.365,20.85-7.949,24.521-8.516l-1.188-4.15
	c0,0,4.668-1.334-9.332-11.333c-14-10-16-18.667-31.333-14s-20.667,4.667-26.667,12c1.335,2.667,6.665,12.667,9.331,18
	S85.986,122.999,90.653,123.666z"/>
<path fill="#603913" d="M69.988,127.666c0,0-2-0.667,11.333,5.333s19.333,8.666,21.999,6c2.668-2.666,4-5.333,7.334-3.333
	s6.666,2,10.666,0s7.334-4,9.334-4s6-1.333,6.666-3.333c0.668-2,3.334,1.334,6.668,0c3.332-1.334-4.668-4.667-4.668-4.667
	l-2.812-9.85c-3.672,0.565-14.086,1.149-24.521,8.516c-11.334,8-16.667,2.001-21.333,1.334s-10.667-4.001-13.333-9.334
	s-7.996-15.333-9.331-18C61.988,103.666,69.988,127.666,69.988,127.666z"/>
<path fill="#EFF8F9" d="M93.986,35.666c0,0,10.666-2.667,15.332,4c4.668,6.667,3.334,18.666-6,21.333
	c-9.332,2.667-18.001,7.333-23.999,5.333s-14.667,0-14.667,0L57.32,54.999"/>
<path fill="#603913" d="M84.653,50.999c-12.667,7.333-10.667,2.667-16-1.333c-2.761-2.071-7.485-5.392-11.403-8.114
	c-4.188,6.721-6.232,6.513,0.072,13.447c6.667,7.333,2,12,16,9.333s26.666-4.667,27.332-6.667s3.334-8,3.334-8
	s-1.791-3.22-4.352-7.232C95.354,44.856,90.065,47.865,84.653,50.999z"/>
<path fill="#754C29" d="M84.653,50.999c5.413-3.134,10.7-6.144,14.985-8.565C95.205,35.486,88.459,26.155,84.655,27
	c-6,1.333-22,5.333-26.667,13.333c-0.253,0.435-0.498,0.833-0.739,1.22c3.917,2.722,8.642,6.043,11.403,8.114
	C73.986,53.666,71.986,58.332,84.653,50.999z"/>
</svg>
