<?xml version="1.0" encoding="utf-8"?>
<!-- Generator: Adobe Illustrator 15.0.2, SVG Export Plug-In  -->
<!DOCTYPE svg PUBLIC "-//W3C//DTD SVG 1.1//EN" "http://www.w3.org/Graphics/SVG/1.1/DTD/svg11.dtd" [
	<!ENTITY ns_flows "http://ns.adobe.com/Flows/1.0/">
]>
<svg version="1.1"
	 xmlns="http://www.w3.org/2000/svg" xmlns:xlink="http://www.w3.org/1999/xlink" xmlns:a="http://ns.adobe.com/AdobeSVGViewerExtensions/3.0/"
	 x="0px" y="0px" width="200px" height="200px" viewBox="-25.75 -1 200 200"
	 overflow="visible" enable-background="new -25.75 -1 200 200" xml:space="preserve">
<defs>
</defs>
<g>
	<path fill="#602D2B" d="M9.927,196l-1.5-1.491L7.282,8.423H3l-1.5-1.5V3L3,1.5h33.091l1.5,1.5v3.923l-1.5,1.5h-7.359
		l-1.134,170.726H98.41c9.041-2.211,27.428-8.895,33.462-18.693c1.008-1.636,0.392-3.312-0.698-5.909
		c-0.479-1.141-0.973-2.32-1.292-3.598c-0.355-1.422-0.694-2.792-1.02-4.108c-2.019-8.161-3.613-14.606-5.136-16.944
		c-0.419-0.644-0.551-1.127-0.625-1.433c-0.603-0.384-2.786-1.244-3.646-1.583l-0.139-0.055c-1.403-0.553-2.958-1.165-4.684-1.88
		c-14.748-6.103-24.357-11.976-27.804-14.218l-0.084-0.055c-0.611-0.187-1.378-0.346-2.186-0.514c-3-0.622-6.734-1.396-6.948-4.648
		c-0.323-4.903,4.396-6.564,7.52-7.664c0.862-0.304,1.677-0.59,2.301-0.894c5.446-2.654,16.306-10.139,22.458-21.359
		c4.273-7.794,7.831-12.343,10.428-15.664c1.255-1.605,2.413-2.698,3.344-3.576c1.663-1.568,2.136-2.083,1.979-3.483
		c-0.193-1.742-0.226-3.333-0.251-4.611c-0.059-2.781-0.153-3.449-0.562-3.972c-1.053-1.346-5.741-5.746-13.22-8.24
		c-3.512-1.17-6.928-1.671-9.941-2.113c-2.913-0.427-5.665-0.83-8.064-1.756c-7.309-2.818-12.589-4.854-16.243-4.854
		c-0.386,0-0.757,0.023-1.103,0.069c-3.56,0.475-8.606,0.736-14.208,0.736c-6.398,0-12.249-0.339-14.624-0.846
		c-0.239-0.026-0.91-0.073-2.646-0.073c-2.489,0-6.027,0.1-8.604,0.244l-1.583-1.498v-13.83l1.417-1.498
		c3.285-0.184,6.124-0.276,8.438-0.276c3.065,0,5.233,0.157,6.629,0.48c1.05,0.179,5.566,0.451,11.098,0.451
		c3.375,0,8.173-0.103,11.86-0.594c1.129-0.15,2.28-0.226,3.424-0.226c6.673,0,13.19,2.513,22.211,5.992
		c4.763,1.837,10.151,3.916,16.812,6.137c19.403,6.467,23.211,13.886,23.451,25.315c0.022,1.098,0.044,2.135,0.151,3.101
		c1.069,9.633-2.602,14.328-6.487,19.299c-2.376,3.04-5.322,6.809-8.928,13.386c-4.05,7.385-10.326,13.988-18.681,19.659
		c5.104,1.964,10.168,3.984,15.091,6.021c0.676,0.278,1.329,0.527,1.955,0.766c0.949,0.362,1.847,0.704,2.686,1.096
		c7.328,3.434,17.784,10.86,23.976,35.623c1.983,7.936,0.81,15.492-3.489,22.46c-11.429,18.517-41.58,25.717-44.98,26.477
		l-0.745,0.167L100.15,196H9.927z"/>
	<path d="M36.091,3v3.923h-8.85l-1.153,173.726H98.59c8.032-1.939,27.949-8.672,34.56-19.407c2.094-3.399-0.845-6.786-1.812-10.657
		c-2.675-10.702-4.438-18.567-6.354-21.507c-1.138-1.746,0.946-1.259-4.978-3.593c-1.433-0.564-3.024-1.19-4.799-1.925
		c-17.792-7.362-27.699-14.217-27.822-14.257c-2.736-0.912-8.088-1.038-8.275-3.891c-0.32-4.861,5.864-5.595,8.979-7.11
		c5.716-2.785,16.795-10.457,23.117-21.986c4.209-7.677,7.726-12.177,10.294-15.461c3.353-4.289,6.012-4.736,5.633-8.148
		c-0.184-1.648-0.216-3.149-0.242-4.476c-0.062-2.906-0.144-3.925-0.882-4.867c-1.055-1.348-5.856-6.047-13.926-8.737
		c-7.002-2.333-13.271-2.044-17.94-3.846c-7.581-2.923-12.852-4.955-16.783-4.955c-0.45,0-0.882,0.026-1.299,0.082
		c-3.848,0.513-9.056,0.724-14.012,0.724c-6.288,0-12.173-0.338-14.374-0.826c-0.488-0.064-1.55-0.093-2.896-0.093
		c-2.527,0-6.057,0.1-8.688,0.246v-13.83c3.277-0.183,6.066-0.274,8.354-0.274c2.918,0,5.022,0.148,6.29,0.442
		c1.371,0.237,6.152,0.489,11.437,0.489c4.185,0,8.686-0.158,12.059-0.607c1.084-0.144,2.155-0.212,3.226-0.212
		c6.385,0,12.728,2.442,21.671,5.891c4.772,1.841,10.18,3.927,16.878,6.16c18.664,6.221,22.195,12.937,22.426,23.924
		c0.023,1.135,0.046,2.206,0.16,3.235c1.002,9.024-2.324,13.28-6.178,18.21c-2.402,3.073-5.394,6.897-9.062,13.589
		c-5.256,9.585-13.505,16.253-20.648,20.731c5.128,1.946,11.243,4.342,17.801,7.056c1.692,0.699,3.246,1.212,4.579,1.835
		c6.047,2.833,16.883,9.541,23.155,34.628c1.882,7.528,0.768,14.698-3.311,21.308c-11.105,17.993-40.693,25.055-44.031,25.801
		l-0.746,0.167H9.927L8.772,6.923H3V3H36.091 M36.091,0H3L0,3v3.923l3,3h2.791l1.136,184.596l3,2.981h90.224l0.655-0.072
		l0.746-0.167c3.463-0.774,34.178-8.113,45.929-27.153c4.52-7.324,5.754-15.268,3.668-23.61
		c-7.08-28.318-20.412-34.564-24.793-36.617c-0.892-0.417-1.813-0.768-2.789-1.14c-0.613-0.233-1.254-0.478-1.917-0.751
		c-4.092-1.693-8.281-3.375-12.511-5.022c7.41-5.433,13.062-11.654,16.844-18.55c3.547-6.47,6.451-10.187,8.786-13.173
		c3.908-5,7.941-10.159,6.804-20.399c-0.1-0.899-0.12-1.903-0.143-2.966c-0.254-12.116-4.229-19.96-24.477-26.708
		c-6.627-2.209-11.997-4.281-16.735-6.109c-9.184-3.541-15.81-6.096-22.762-6.096c-1.209,0-2.428,0.08-3.62,0.238
		c-3.607,0.481-8.334,0.582-11.664,0.582c-5.271,0-9.698-0.253-10.86-0.435c-1.508-0.334-3.756-0.497-6.866-0.497
		c-2.1,0-4.623,0.076-7.51,0.224l2.155-2.155V3L36.091,0L36.091,0z M30.221,9.923h4.955l-2.085,2.205v13.83l3.167,2.995
		c2.553-0.142,6.057-0.241,8.521-0.241c1.571,0,2.206,0.04,2.417,0.058c2.892,0.594,9.497,0.861,14.852,0.861
		c5.666,0,10.783-0.267,14.409-0.75c0.276-0.037,0.582-0.055,0.902-0.055c3.375,0,8.547,1.994,15.704,4.754
		c2.556,0.986,5.388,1.401,8.386,1.841c3.097,0.454,6.299,0.923,9.686,2.052c7.128,2.376,11.531,6.487,12.512,7.74
		c0.187,0.352,0.226,2.195,0.245,3.082c0.025,1.305,0.058,2.934,0.26,4.744c0.072,0.65,0.08,0.718-1.519,2.225
		c-0.967,0.913-2.172,2.049-3.496,3.744c-2.629,3.361-6.229,7.965-10.562,15.866c-5.971,10.89-16.513,18.155-21.801,20.732
		c-0.544,0.265-1.32,0.538-2.141,0.827c-3.335,1.173-8.916,3.138-8.518,9.177c0.288,4.39,5.014,5.37,8.14,6.019
		c0.688,0.143,1.344,0.279,1.857,0.423c3.565,2.312,13.225,8.188,27.946,14.281c1.741,0.72,3.317,1.341,4.707,1.889l0.14,0.055
		c1.399,0.552,2.385,0.961,2.943,1.224c0.133,0.36,0.322,0.759,0.62,1.216c1.384,2.125,3.03,8.779,4.937,16.485
		c0.325,1.317,0.665,2.689,1.021,4.111c0.347,1.389,0.888,2.678,1.364,3.814c1.036,2.473,1.399,3.575,0.804,4.542
		c-5.335,8.664-22.137,15.451-32.366,17.98H29.108L30.221,9.923L30.221,9.923z"/>
</g>
<path fill="#00AEEF" d="M98.728,194.346l0.747-0.167c3.337-0.747,32.925-7.808,44.03-25.802c2.711-4.39,4.103-9.028,4.186-13.855
	h-13.858c-0.088,2.267-0.78,4.415-2.105,6.566c-6.61,10.733-26.527,17.467-34.561,19.405H26.355V93.342H8.503l1,101.004H98.728z"/>
</svg>
