<?xml version="1.0" encoding="utf-8"?>
<!-- Generator: Adobe Illustrator 15.0.2, SVG Export Plug-In  -->
<!DOCTYPE svg PUBLIC "-//W3C//DTD SVG 1.1//EN" "http://www.w3.org/Graphics/SVG/1.1/DTD/svg11.dtd" [
	<!ENTITY ns_flows "http://ns.adobe.com/Flows/1.0/">
]>
<svg version="1.1"
	 xmlns="http://www.w3.org/2000/svg" xmlns:xlink="http://www.w3.org/1999/xlink" xmlns:a="http://ns.adobe.com/AdobeSVGViewerExtensions/3.0/"
	 x="0px" y="0px" width="200px" height="200px" viewBox="-20.593 -2.215 200 200"
	 overflow="visible" enable-background="new -20.593 -2.215 200 200" xml:space="preserve">
<defs>
</defs>
<g>
	<path fill="#FFF200" d="M31.367,186.2c-0.06-0.19-5.565-18.167,5.968-27.922c-4.742-2.78-9.974-7.832-11.841-16.903
		c-2.079-10.099,6.292-25.635,12.403-36.979c2.023-3.754,3.77-6.997,4.678-9.216c3.759-9.189,13.745-33.598,3.194-39.102
		c-1.725-0.9-3.452-1.337-5.281-1.337c-5.034,0-9.958,3.375-14.722,6.638c-4.586,3.143-8.919,6.111-13.333,6.111
		c-1.894,0-3.682-0.564-5.315-1.678c-3.935-2.683-5.82-5.927-5.601-9.642c0.412-7.004,8.407-13.595,15.752-17.428
		c8.613-4.494,15.598-6.586,21.984-6.586c3.935,0,7.584,0.782,11.159,2.391l1.149,0.512c4.638,2.057,8.131,3.605,12.078,10.159
		c1.222-2.81,2.105-5.765,0.394-11.185c-0.361-1.144-0.745-2.27-1.122-3.38c-2.731-8.032-5.555-16.336,3.623-23.582
		C71.017,3.531,77.292,1.5,83.748,1.5c4.2,0,9.613,0.975,11.045,3.722c1.731,3.323,2.039,6.201,0.912,8.553
		c-1.507,3.148-5.011,4.157-6.448,4.444c-0.387,0.078-0.779,0.117-1.167,0.117c-2.148,0-3.831-1.165-5.316-2.193
		c-1.152-0.798-2.241-1.552-3.27-1.552c-0.766,0-1.594,0.415-2.532,1.268c-1.542,1.402-3.191,7.089-1.047,16.377
		c0.331,1.434,0.541,2.929,0.629,4.479c0.526-1.177,1.035-2.357,1.523-3.539c3.416-8.254,8.836-9.486,11.764-9.486
		c1.787,0,3.013,0.438,3.146,0.488c0.285,0.112,6.405,2.605,6.971,9.957c0.333,4.317-1.757,9.846-7.175,12.466
		c-1.012,0.489-2.109,0.726-3.357,0.726c-0.93,0-1.817-0.127-2.676-0.25c-0.783-0.112-1.523-0.218-2.227-0.218
		c-1.351,0-2.827,0.349-4.469,2.875c-0.799,1.229-1.518,2.341-2.169,3.349c-4.819,7.455-6.111,9.454-9.32,11.498
		c0.548,5.837-0.008,11.851-1.655,17.889c-2.834,10.393-8.699,19.871-13.873,28.233c-6.09,9.845-11.351,18.347-11.076,26.32
		c0.192,5.561,1.604,9.961,3.252,13.259c-0.182-1.459-0.31-3.071-0.341-4.817l-0.699,1.2l0.798-7.082
		c0.041-0.363,4.464-36.511,36.364-51.195c3.572-1.644,7.842-3.293,11.972-4.887c8.25-3.185,16.781-6.479,20.831-10.043
		c2.465-2.169,3.803-4.743,3.868-7.443c0.071-2.976-1.38-6.061-4.088-8.687c-0.845-0.819-1.649-1.582-2.408-2.303
		c-6.947-6.595-10.774-10.228-6.415-19.891c1.54-3.413,5.782-5.618,10.809-5.618c4.973,0,9.768,2.082,13.155,5.711
		c6.75,7.232,9.724,19.119,7.576,30.284c-1.952,10.151-7.824,17.998-16.534,22.097c-10.666,5.019-19.697,7.408-26.955,9.327
		c-0.735,0.195-1.461,0.387-2.178,0.579c2.647,0.618,5.105,1.613,7.283,2.961c5.302,3.281,6.083,7.467,5.805,10.4
		c-0.446,4.703-4.01,9.11-7.058,10.276c-3.049,1.165-5.951,1.731-8.873,1.731c-3.448,0-6.401-0.803-9.008-1.511
		c-2.211-0.601-4.3-1.168-6.377-1.168c-2.571,0-6.222,0.747-11.684,6.572c-4.696,5.009-5.094,16.688-5.332,23.665
		c-0.009,0.272-0.019,0.538-0.027,0.796c2.206-0.211,4.384-0.318,6.495-0.318c13.331,0,22.772,4.259,30.358,7.681
		c5.589,2.521,10.415,4.698,15.43,4.697c0.866,0,1.737-0.065,2.589-0.195c9.662-1.476,16.671-10.52,17.442-16.354
		c0.326-2.463-0.398-4.104-2.153-4.875c-2.268-0.998-3.894-1.564-5.466-2.112c-2.659-0.927-5.171-1.802-10.002-4.54
		c-2.962-1.678-5.179-4.792-5.931-8.33c-0.763-3.597,0.053-7.249,2.297-10.282c2.743-3.707,8.065-5.921,14.237-5.921
		c4.067,0,8.204,0.969,11.65,2.727c12.466,6.359,19.028,21.763,15.957,37.458c-3.416,17.462-24.147,31.006-39.703,31.006
		c-0.001,0-0.001,0-0.001,0c-0.888,0-1.761-0.046-2.596-0.137c-9.422-1.021-19.622-5.36-29.485-9.558
		c-8.997-3.829-17.495-7.445-23.376-7.445c-0.182,0-0.363,0.003-0.541,0.011c-8.612,0.346-12.774,5.175-14.75,9.166
		c-2.122,4.288-3.872,12.083-3.889,12.161l-1.213,5.445L31.367,186.2z"/>
	<path fill="#2E3192" d="M83.748,3c4.915,0,8.857,1.269,9.715,2.915c4,7.676-1.518,10.236-4.5,10.833
		c-0.3,0.06-0.59,0.087-0.873,0.087c-3.296,0-5.534-3.745-8.586-3.745c-1.057,0-2.211,0.449-3.541,1.658
		c-2.369,2.154-3.573,8.841-1.5,17.824c0.914,3.961,0.757,8.014,0.102,11.736c1.575-3.057,3.253-6.586,4.898-10.561
		c3.008-7.269,7.536-8.561,10.378-8.56c1.567,0,2.622,0.394,2.622,0.394s5.5,2.167,6,8.667c0.316,4.111-1.833,8.824-6.333,11
		c-0.902,0.436-1.804,0.577-2.704,0.577c-1.641,0-3.278-0.468-4.902-0.468c-1.931,0-3.845,0.662-5.727,3.557
		c-7.094,10.913-7.826,12.533-11.822,14.876c0.637,5.543,0.281,11.709-1.512,18.282c-6,22-25.541,39.309-25,55
		c0.301,8.727,3.495,14.717,5.994,18.119c0.368-0.108,0.75-0.208,1.135-0.307c-0.865-3.443-1.686-8.827-0.929-15.476
		c-0.127,0.214-0.2,0.339-0.2,0.339s4-35.5,35.5-50c10.593-4.876,26.792-9.557,33.167-15.167c6.37-5.605,5.333-13-0.167-18.333
		c-8.449-8.192-12.859-10.837-8.5-20.5c1.34-2.97,5.126-4.735,9.441-4.735c4.089,0,8.653,1.586,12.059,5.235
		c11.635,12.466,11.539,40.57-8.5,50C103.9,93.571,92.253,95.125,83.036,98.29c0.42-0.017,0.841-0.026,1.263-0.026
		c4.569,0,9.201,1.031,13.164,3.484c9.916,6.139,3.168,16.406-1,18c-3.148,1.204-5.88,1.633-8.337,1.633
		c-6.134,0-10.544-2.679-15.385-2.679c-3.69,0-7.632,1.557-12.778,7.046c-5.748,6.131-5.521,20.783-5.833,27.166
		c2.853-0.343,5.532-0.497,8.063-0.497c22.674,0.001,33.269,12.378,45.788,12.378c0.926,0,1.863-0.067,2.815-0.213
		c14.354-2.191,24.081-20.382,15.667-24.084c-6.25-2.75-7.833-2.334-15.333-6.584c-4.928-2.792-7.667-10.333-3.167-16.416
		c2.621-3.542,7.661-5.312,13.031-5.312c3.73,0,7.621,0.854,10.969,2.562c11.578,5.906,18.167,20.5,15.167,35.834
		c-3.248,16.601-23.506,29.794-38.232,29.794c-0.83,0-1.644-0.042-2.435-0.128c-18.09-1.959-40.432-17.012-53.022-17.012
		c-0.202,0-0.403,0.004-0.601,0.012c-9.176,0.368-13.807,5.5-16.034,10s-4.009,12.5-4.009,12.5s-5.983-18.927,7.335-27.689
		c-4.883-2.299-11.136-7.107-13.17-16.986c-2.652-12.883,13.358-36.422,17-45.324c4.5-11,14-35,2.5-41
		c-2.034-1.061-4.023-1.507-5.975-1.507c-10.422,0-19.695,12.749-28.055,12.749c-1.519,0-3.01-0.422-4.47-1.417
		c-11.426-7.791-1.011-18.755,10-24.5c7.518-3.922,14.537-6.417,21.29-6.417c3.577,0,7.081,0.7,10.543,2.258
		c5.774,2.598,9.333,3.667,14,12.667c1.574-3.884,4.127-7.209,1.667-15c-3-9.5-7.5-17.833,2-25.333C72.333,4.403,78.578,3,83.748,3
		 M83.748,0L83.748,0c-6.786,0-13.4,2.148-18.144,5.894c-10.01,7.902-6.877,17.114-4.113,25.242
		c0.372,1.094,0.757,2.226,1.111,3.349c1.025,3.244,1.044,5.48,0.611,7.381c-3.561-4.859-6.973-6.373-11.044-8.178
		c-0.371-0.165-0.751-0.333-1.142-0.509c-3.719-1.673-7.681-2.522-11.774-2.522c-6.636,0-13.842,2.147-22.678,6.757
		C8.865,41.435,0.467,48.452,0.019,56.082c-0.173,2.941,0.771,7.231,6.254,10.969c1.887,1.287,3.959,1.939,6.16,1.939
		c4.878,0,9.397-3.096,14.181-6.374c4.575-3.135,9.305-6.375,13.874-6.375c1.582,0,3.082,0.382,4.587,1.167
		c9.338,4.872-0.618,29.208-3.889,37.205c-0.877,2.146-2.607,5.356-4.61,9.073c-6.221,11.546-14.741,27.359-12.552,37.992
		c1.757,8.531,6.332,13.705,10.856,16.818c-10.354,10.498-5.191,27.374-4.943,28.156l3.361,10.632l2.428-10.884
		c0.017-0.076,1.731-7.704,3.77-11.821c2.611-5.276,7.141-8.08,13.465-8.333c0.158-0.007,0.319-0.01,0.48-0.01
		c5.575,0,13.937,3.558,22.789,7.325c9.5,4.043,20.268,8.625,29.911,9.669c0.89,0.097,1.817,0.146,2.758,0.146
		c16.127,0,37.627-14.073,41.177-32.218c3.198-16.35-3.688-32.421-16.748-39.082c-3.653-1.864-8.032-2.891-12.332-2.891
		c-6.745,0-12.374,2.38-15.443,6.528c-2.503,3.384-3.412,7.464-2.558,11.486c0.839,3.951,3.328,7.438,6.658,9.324
		c4.948,2.804,7.522,3.701,10.247,4.65c1.545,0.539,3.143,1.096,5.356,2.069c0.441,0.194,1.613,0.71,1.271,3.305
		c-0.693,5.242-7.342,13.718-16.183,15.067c-0.777,0.119-1.572,0.179-2.362,0.179c-4.691,0-9.382-2.115-14.812-4.564
		c-7.717-3.48-17.321-7.812-30.975-7.813c-1.614,0-3.265,0.062-4.938,0.183c0.229-6.483,0.781-17.41,4.896-21.8
		c5.067-5.405,8.321-6.098,10.589-6.098c1.877,0,3.78,0.517,5.984,1.116c2.697,0.732,5.752,1.562,9.401,1.562
		c3.108,0,6.186-0.599,9.408-1.831c3.454-1.32,7.501-6.106,8.016-11.535c0.45-4.744-1.861-8.941-6.508-11.817
		c-0.912-0.565-1.87-1.071-2.867-1.517c6.827-1.833,15.04-4.235,24.565-8.718c9.155-4.308,15.323-12.537,17.368-23.17
		c2.235-11.62-0.887-24.02-7.952-31.591c-3.67-3.932-8.864-6.188-14.252-6.188c-5.701,0-10.366,2.491-12.176,6.501
		c-4.798,10.634-0.204,14.995,6.75,21.596c0.755,0.717,1.556,1.477,2.396,2.292c2.403,2.331,3.693,5.021,3.632,7.574
		c-0.056,2.304-1.186,4.441-3.358,6.354c-3.85,3.387-12.254,6.632-20.381,9.77c-4.151,1.603-8.443,3.26-12.06,4.924
		c-8.564,3.942-16.006,9.808-22.03,17.292c3.874-6.583,7.578-13.747,9.679-21.453c1.611-5.906,2.207-11.793,1.777-17.529
		c2.962-2.08,4.523-4.495,9.011-11.438c0.65-1.006,1.369-2.117,2.167-3.345c1.425-2.192,2.458-2.192,3.212-2.192
		c0.597,0,1.285,0.099,2.014,0.203c0.868,0.124,1.853,0.265,2.889,0.265c1.479,0,2.791-0.287,4.01-0.876
		c5.242-2.535,8.465-8.133,8.019-13.931c-0.637-8.277-7.596-11.111-7.892-11.227l-0.025-0.01l-0.025-0.009
		c-0.261-0.097-1.663-0.583-3.671-0.583c-3.141,0-8.811,1.223-12.583,9.137c-1.856-8.544-0.3-13.427,0.723-14.357
		c0.623-0.566,1.163-0.877,1.523-0.877c0.559,0,1.503,0.653,2.416,1.285c1.583,1.096,3.553,2.46,6.17,2.46
		c0.485,0,0.978-0.049,1.461-0.146c1.658-0.332,5.708-1.509,7.508-5.268c1.341-2.801,1.026-6.13-0.936-9.894
		C93.933,0.327,86.097,0,83.748,0L83.748,0L83.748,0z M43.568,138.755c-0.05-0.58-0.087-1.176-0.108-1.786
		c-0.18-5.217,2.244-10.82,5.736-16.981C45.203,128.982,43.891,136.525,43.568,138.755L43.568,138.755z"/>
</g>
</svg>
