<?xml version="1.0" encoding="utf-8"?>
<!-- Generator: Adobe Illustrator 15.0.2, SVG Export Plug-In  -->
<!DOCTYPE svg PUBLIC "-//W3C//DTD SVG 1.1//EN" "http://www.w3.org/Graphics/SVG/1.1/DTD/svg11.dtd" [
	<!ENTITY ns_flows "http://ns.adobe.com/Flows/1.0/">
]>
<svg version="1.1"
	 xmlns="http://www.w3.org/2000/svg" xmlns:xlink="http://www.w3.org/1999/xlink" xmlns:a="http://ns.adobe.com/AdobeSVGViewerExtensions/3.0/"
	 x="0px" y="0px" width="200px" height="200px" viewBox="-17.719 -1.005 200 200"
	 overflow="visible" enable-background="new -17.719 -1.005 200 200" xml:space="preserve">
<defs>
</defs>
<path fill="#ED1C24" d="M0,195.403L26.494,3.47l42.46-1.915L57.22,85.998c5.181-5.252,11.247-9.273,18.199-12.074
	c6.949-2.795,14.003-4.273,21.163-4.427c11.524-0.249,21.51,2.459,29.966,8.116c8.452,5.662,14.501,13.321,18.133,22.972
	c3.632,9.66,4.72,20.188,3.251,31.59c-2.421,17.655-10.192,32.892-23.312,45.711c-13.123,12.822-28.48,19.419-46.069,19.801
	c-7.322,0.153-14.044-1.142-20.176-3.888c-6.132-2.752-10.663-6.973-13.593-12.675l-0.464,0.009l-1.814,13.357L0,195.403z
	 M99.181,114.183c-4.159-5.129-10.442-7.602-18.851-7.422c-8.404,0.18-15.436,2.943-21.082,8.281
	c-5.647,5.341-8.938,11.838-9.862,19.486c-1.078,7.814,0.46,14.205,4.619,19.175c4.157,4.975,10.44,7.372,18.844,7.19
	c8.408-0.182,15.439-2.863,21.092-8.048c5.645-5.182,9.013-11.679,10.09-19.493C104.957,125.702,103.341,119.312,99.181,114.183z"/>
<path fill="#00A651" d="M158.318,40.934c0.493-3.978,0.691-7.909,0.595-11.79c-0.102-3.879-0.822-7.586-2.166-11.118
	c-1.343-3.532-3.062-6.615-5.146-9.252c-2.09-2.636-4.854-4.724-8.281-6.27c-3.435-1.542-10.537-2.313-14.814-2.313
	c-5.172,0-10.272,1.296-15.297,3.88c-5.023,2.588-8.928,6.07-11.715,10.447h-1.192L103.439,0L66.761,1.654L48.963,110.665h16.273
	c4.412-2.461,9.434-3.785,15.094-3.904c2.812-0.061,5.365,0.203,7.701,0.736l4.362-24.481l2.342-12.683
	c1.491,3.779,3.304,6.842,7.431,9.179c4.131,2.336,11.679,3.504,16.158,3.504c5.169,0,10.143-1.319,14.922-3.954
	c4.771-2.634,8.826-6.018,12.159-10.147c3.332-4.128,6.12-8.631,8.357-13.508C155.999,50.536,157.521,45.708,158.318,40.934z
	 M117.094,41.231c-0.45,2.887-1.818,5.548-4.105,7.983c-2.287,2.44-4.881,3.657-7.761,3.657c-3.087,0-5.323-1.094-6.72-3.284
	c-1.393-2.188-1.836-4.874-1.342-8.057c0.5-3.081,1.794-5.721,3.883-7.909c2.086-2.188,4.678-3.283,7.758-3.283
	c2.787,0,4.973,1.095,6.57,3.283C116.969,35.809,117.537,38.348,117.094,41.231z"/>
<path d="M126.548,77.612c-8.456-5.657-18.441-8.365-29.966-8.116c-7.16,0.153-14.215,1.632-21.163,4.427
	c-6.952,2.801-13.018,6.822-18.198,12.074L68.954,1.556l-2.193,0.099L48.963,110.665h16.219c3.301-1.85,6.952-3.042,10.954-3.579
	c0.071-0.01,0.145-0.018,0.217-0.026c0.531-0.068,1.068-0.124,1.611-0.169c0.155-0.013,0.31-0.027,0.466-0.038
	c0.627-0.044,1.258-0.078,1.9-0.092c0.671-0.015,1.323-0.006,1.968,0.014c0.069,0.003,0.138,0.006,0.206,0.009
	c1.972,0.07,3.815,0.301,5.531,0.691l4.358-24.459l2.342-12.683c1.491,3.779,3.304,6.842,7.431,9.179
	c4.131,2.336,11.679,3.504,16.158,3.504c4.137,0,8.146-0.859,12.033-2.548C129.141,79.472,127.885,78.508,126.548,77.612z"/>
</svg>
