<?xml version="1.0" encoding="utf-8"?>
<!-- Generator: Adobe Illustrator 15.0.2, SVG Export Plug-In  -->
<!DOCTYPE svg PUBLIC "-//W3C//DTD SVG 1.1//EN" "http://www.w3.org/Graphics/SVG/1.1/DTD/svg11.dtd" [
	<!ENTITY ns_flows "http://ns.adobe.com/Flows/1.0/">
]>
<svg version="1.1"
	 xmlns="http://www.w3.org/2000/svg" xmlns:xlink="http://www.w3.org/1999/xlink" xmlns:a="http://ns.adobe.com/AdobeSVGViewerExtensions/3.0/"
	 x="0px" y="0px" width="200px" height="200px" viewBox="0 0 200 200" overflow="visible" enable-background="new 0 0 200 200"
	 xml:space="preserve">
<defs>
</defs>
<rect display="none" fill="#FFFFFF" width="200" height="200"/>
<rect y="0" display="none" fill="#FFFFFF" width="200" height="200"/>
<path fill="none" stroke="#739ED3" stroke-width="7.9583" stroke-miterlimit="10" d="M121.952,38.437
	c9.283,4.642,34.457,37.29,5.305,54.383c-12.72,7.457-66.65,4.642-91.52,19.232c-24.87,14.589,8.798,43.314,14.59,53.054
	c7.296,12.27,5.306,23.875,5.306,23.875s67.299-14.711,87.244-32.162c10.611-9.284,19.233-30.508,1.99-41.119"/>
<path fill="none" stroke="#A4BDE3" stroke-width="7.9583" stroke-miterlimit="10" d="M150.468,36.447
	c13.265,24.539,5.024,46.667-23.211,56.373c-21.221,7.294-51.729,9.948-79.583,22.547c-27.854,12.6-23.874,37.14-19.564,48.083
	c4.311,10.942,23.247,25.865,23.247,25.865s40.616-1.326,53.352-6.633c35.812-14.922,42.776-45.76,18.9-54.713"/>
<path fill="none" stroke="#006EB9" stroke-width="7.9583" stroke-miterlimit="10" d="M115.023,20.2
	c15.252-2.652,43.106,28.519,20.558,56.374C121.823,93.568,76.865,107.663,56.626,122c-23.875,16.912-21.107,40.058-18.901,49.74
	c2.605,11.434,15.287,20.892,15.287,20.892s23.974,2.695,46.095-1.327c36.475-6.631,47.705-23.886,51.065-37.802
	c4.643-19.231-15.253-41.117-28.517-39.792"/>
<path fill="none" stroke="#2E3192" stroke-width="7.9583" stroke-miterlimit="10" d="M81.199,8.262
	c-3.979,3.979-20.228,18.901-17.243,39.792c2.984,20.892,32.827,51.067,29.841,77.926c-2.984,26.86-40.786,66.651-40.786,66.651"/>
<path fill="none" stroke="#C4D3EC" stroke-width="7.9583" stroke-miterlimit="10" d="M59.315,184.673
	c0,0,54.38-15.255,44.433-53.057c-6.281-23.869-40.454-48.415-41.781-71.625C60.64,36.781,87.169,14.896,87.169,14.896"/>
<path fill="none" stroke="#C4D3EC" stroke-width="7.9583" stroke-miterlimit="10" d="M87.832,25.507
	c-0.996,3.01-40.454,10.612-32.496,49.077c7.958,38.465,58.59,55.279,59.022,76.929c0.665,33.161-61.346,41.119-61.346,41.119"/>
<path fill="none" stroke="#C4D3EC" stroke-width="7.9583" stroke-miterlimit="10" d="M65.283,14.231
	c-0.994,3.979-13.27,17.078-9.285,37.802c6.631,34.486,49.077,52.394,51.066,80.91c1.881,26.958-54.053,59.688-54.053,59.688"/>
<path fill="none" stroke="#006EB9" stroke-width="7.9583" stroke-miterlimit="10" d="M81.199,8.262
	c-3.979,3.979-20.228,18.901-17.243,39.792c2.984,20.892,32.827,51.067,29.841,77.926c-2.984,26.86-40.786,66.651-40.786,66.651"/>
<path fill="none" stroke="#006EB9" stroke-width="7.9583" stroke-miterlimit="10" d="M53.012,192.631c0,0,23.974,2.695,46.095-1.327
	c36.475-6.631,47.705-23.886,51.065-37.802c4.643-19.231-15.253-41.117-28.517-39.792"/>
</svg>
