<?xml version="1.0" encoding="utf-8"?>
<!-- Generator: Adobe Illustrator 15.0.2, SVG Export Plug-In  -->
<!DOCTYPE svg PUBLIC "-//W3C//DTD SVG 1.1//EN" "http://www.w3.org/Graphics/SVG/1.1/DTD/svg11.dtd" [
	<!ENTITY ns_flows "http://ns.adobe.com/Flows/1.0/">
]>
<svg version="1.1"
	 xmlns="http://www.w3.org/2000/svg" xmlns:xlink="http://www.w3.org/1999/xlink" xmlns:a="http://ns.adobe.com/AdobeSVGViewerExtensions/3.0/"
	 x="0px" y="0px" width="200px" height="200px" viewBox="-9.87 -16.294 200 200"
	 overflow="visible" enable-background="new -9.87 -16.294 200 200" xml:space="preserve">
<defs>
</defs>
<path fill="none" d="M83.236,94.492c0.73-0.227,1.568-0.49,2.582-0.79c0.199-0.491,0.398-0.982,0.592-1.478l-3.081-1.29
	C83.477,92.089,83.432,93.293,83.236,94.492z"/>
<g>
	<path fill-rule="evenodd" clip-rule="evenodd" fill="#00AEEF" d="M107.628,23.423c2.16-0.55,4.333-1.087,6.518-1.594
		C111.558,21.738,109.344,22.269,107.628,23.423z"/>
	<path fill="#FFFFFF" d="M113.583,21.819c-2.347,0-4.364,0.534-5.954,1.604c2.16-0.55,4.333-1.087,6.518-1.594
		C113.957,21.822,113.768,21.819,113.583,21.819L113.583,21.819z"/>
</g>
<g>
	<path fill-rule="evenodd" clip-rule="evenodd" fill="#00AEEF" d="M173.421,39.007c-0.406-0.148-0.787-0.258-1.173-0.375
		c0.437,0.982,0.829,1.981,1.173,2.995C173.421,40.753,173.421,39.88,173.421,39.007z"/>
	<path fill="#FFFFFF" d="M172.248,38.632c0.437,0.982,0.829,1.981,1.173,2.995c0-0.874,0-1.747,0-2.62
		C173.015,38.858,172.634,38.749,172.248,38.632L172.248,38.632z"/>
</g>
<g>
	<path fill-rule="evenodd" clip-rule="evenodd" fill="#00AEEF" d="M94.021,71.578c0.214,0.766,0.418,1.542,0.619,2.322
		c0.096-0.892,0.18-1.734,0.254-2.536C94.603,71.433,94.312,71.503,94.021,71.578z"/>
	<path fill="#FFFFFF" d="M94.895,71.364c-0.292,0.068-0.583,0.139-0.874,0.214c0.214,0.766,0.418,1.542,0.619,2.322
		C94.737,73.008,94.821,72.166,94.895,71.364L94.895,71.364z"/>
</g>
<g>
	<path fill-rule="evenodd" clip-rule="evenodd" fill="#00AEEF" d="M86.609,92.695l0.572,0.239c-0.261,0.074-0.512,0.146-0.754,0.216
		C86.488,92.999,86.548,92.847,86.609,92.695z"/>
	<path fill="#FFFFFF" d="M86.41,92.224c-0.194,0.496-0.393,0.987-0.592,1.478c0.721-0.214,1.53-0.447,2.454-0.699L86.41,92.224
		L86.41,92.224z"/>
</g>
<g>
	<path fill-rule="evenodd" clip-rule="evenodd" fill="#00AEEF" d="M28.882,171.331c0.36-0.104,0.699-0.228,1.037-0.353
		c-0.595-0.091-1.193-0.194-1.791-0.306C28.37,170.901,28.617,171.125,28.882,171.331z"/>
	<path fill="#FFFFFF" d="M28.128,170.672c0.242,0.229,0.489,0.453,0.754,0.659c0.36-0.104,0.699-0.228,1.037-0.353
		C29.324,170.887,28.726,170.784,28.128,170.672L28.128,170.672z"/>
</g>
<path fill="none" d="M63.426,76.964c0.318,2.42,1.318,4.162,1.146,7.077l2.856,0.335c-0.615-1.958-1.11-4.036-1.441-6.277
	C64.859,77.574,63.937,77.178,63.426,76.964z"/>
<path fill="none" d="M70.231,95.204c0.269,1.258,0.419,2.691,0.421,4.308c0.843,0.228,1.832,0.494,2.929,0.789
	c-1.037-1.36-1.69-3.104-2.188-5.003C71.024,95.269,70.635,95.237,70.231,95.204z"/>
<path fill="none" d="M94.13,78.206l1.637,0.126c-0.381-1.472-0.747-2.958-1.126-4.432C94.497,75.237,94.33,76.666,94.13,78.206z"/>
<path fill="none" d="M54.002,92.534c0.086,1.369-0.049,2.89-0.445,4.55c0.569,0.071,1.199,0.148,1.873,0.229
	c0.167-1.505,0.535-2.84,1.046-4C55.358,93.022,54.552,92.75,54.002,92.534z"/>
<path fill="none" d="M119.942,97.157l0.01,0.115c0.006-0.039,0.014-0.079,0.02-0.118C119.963,97.155,119.95,97.157,119.942,97.157z"
	/>
<path fill="none" d="M24.092,156.268c-0.804-0.307-1.58-0.652-2.335-1.024c0,3.667,0,7.333,0,10.997
	c-1.035,0.54-2.241,1.075-3.522,1.536c3.196,1.333,6.56,2.275,9.893,2.896c-1.157-1.088-2.186-2.299-4.337-2.397
	C22.722,163.328,22.938,159.217,24.092,156.268z"/>
<path fill="none" d="M27.283,10.451c0.468,0.59,0.936,1.163,1.403,1.732c1.756-4.843,6.052-7.778,10.655-7.292
	c-1.039-1.25-2.085-2.569-3.137-3.939c-0.059,0.457-0.121,0.919-0.202,1.406c-1.999,1.885-4.425,2.565-6.797,2.361l-2.361,1.779
	c0.352,0.309,0.69,0.626,1.015,0.95C27.679,8.461,27.492,9.468,27.283,10.451z"/>
<g>
	<path fill-rule="evenodd" clip-rule="evenodd" fill="#00AEEF" d="M35.4,0.5c0.073,0.095,0.43,0.554,0.43,0.554
		c-0.048,0.367-0.099,0.739-0.162,1.126c-1.524,1.4-3.397,2.163-5.437,2.214L35.4,0.5z"/>
	<path fill="#FFFFFF" d="M35.333,0.998c0.001,0.001,0.003,0.003,0.004,0.005l0.118,0.153c-0.036,0.276-0.075,0.556-0.12,0.844
		c-1.123,1.002-2.437,1.649-3.865,1.909L35.333,0.998 M35.468,0l-6.264,4.719c0.269,0.023,0.538,0.035,0.807,0.035
		c2.109,0,4.218-0.724,5.991-2.396c0.081-0.487,0.143-0.949,0.202-1.406C35.958,0.632,35.714,0.327,35.468,0L35.468,0z"/>
</g>
<g>
	<path fill-rule="evenodd" clip-rule="evenodd" fill="#00AEEF" d="M27.087,9.627c-0.468-0.593-0.936-1.192-1.404-1.808l1.141-0.859
		c0.222,0.2,0.438,0.404,0.649,0.61C27.35,8.262,27.223,8.949,27.087,9.627z"/>
	<path fill="#FFFFFF" d="M26.802,7.425c0.096,0.089,0.191,0.18,0.285,0.27c-0.061,0.339-0.129,0.71-0.202,1.097
		c-0.229-0.292-0.463-0.594-0.699-0.902L26.802,7.425 M26.843,6.498L25.182,7.75c0.701,0.93,1.401,1.819,2.101,2.701
		c0.209-0.983,0.396-1.99,0.576-3.003C27.534,7.125,27.195,6.807,26.843,6.498L26.843,6.498z"/>
</g>
<g>
	<path fill-rule="evenodd" clip-rule="evenodd" fill="#00AEEF" d="M137.634,21.342c-3.013-0.061-5.681-0.639-8.481-1.849
		c3.275-0.375,6.328-0.558,9.295-0.558c0.303,0,0.607,0.002,0.911,0.006C138.875,19.789,138.307,20.58,137.634,21.342z"/>
	<path fill="#FFFFFF" d="M138.449,19.292c0.094,0,0.188,0,0.281,0.001c-0.37,0.585-0.786,1.144-1.255,1.687
		c-2.418-0.064-4.615-0.472-6.848-1.285C133.352,19.424,135.931,19.292,138.449,19.292 M138.449,18.577
		c-3.566,0-7.096,0.268-10.594,0.712c2.769,1.347,5.877,2.356,9.937,2.413c0.928-1.029,1.626-2.07,2.164-3.109
		C139.453,18.582,138.95,18.577,138.449,18.577L138.449,18.577z"/>
</g>
<g>
	<path fill-rule="evenodd" clip-rule="evenodd" fill="#00AEEF" d="M151.44,20.49c-1.393-0.046-2.556-0.307-3.78-0.582
		c-1.33-0.298-2.705-0.607-4.377-0.607c-0.015,0-0.029,0-0.043,0v-0.199c0.734,0.051,1.469,0.113,2.206,0.19
		C147.484,19.505,149.492,19.907,151.44,20.49z"/>
	<path fill="#FFFFFF" d="M142.881,18.72c0,0.315,0,0.63,0,0.945c0.136-0.004,0.27-0.006,0.4-0.006c3.266,0,5.332,1.196,8.593,1.196
		c0.483,0,0.992-0.026,1.536-0.086c-2.525-0.925-5.182-1.545-7.928-1.832C144.613,18.846,143.747,18.775,142.881,18.72
		L142.881,18.72z"/>
</g>
<g>
	<path fill-rule="evenodd" clip-rule="evenodd" fill="#00AEEF" d="M39.719,20.387c-1.237,0-2.388-0.154-3.613-0.485
		c-2.315-2.328-4.673-4.946-7.013-7.787c1.603-4.209,5.217-6.918,9.257-6.918c0.268,0,0.539,0.012,0.81,0.036
		c1.659,1.99,3.367,3.895,5.083,5.667c-0.608,3.71-1.337,7.211-3.318,9.438C40.506,20.372,40.105,20.387,39.719,20.387z"/>
	<path fill="#FFFFFF" d="M38.35,5.555c0.209,0,0.421,0.008,0.631,0.023c1.593,1.906,3.232,3.734,4.878,5.442
		c-0.583,3.529-1.292,6.846-3.108,8.973c-0.35,0.024-0.696,0.037-1.032,0.037c-1.174,0-2.268-0.143-3.427-0.449
		c-2.241-2.258-4.523-4.789-6.789-7.531C31.088,8.091,34.522,5.555,38.35,5.555 M38.35,4.839c-4.219,0-8.035,2.851-9.664,7.344
		c2.417,2.944,4.829,5.625,7.234,8.038c1.129,0.312,2.359,0.523,3.799,0.523c0.438,0,0.896-0.02,1.375-0.062
		c2.149-2.328,2.903-6.051,3.53-9.902c-1.748-1.799-3.507-3.752-5.284-5.89C39.009,4.856,38.678,4.839,38.35,4.839L38.35,4.839z"/>
</g>
<g>
	<path fill-rule="evenodd" clip-rule="evenodd" fill="#00AEEF" d="M124.365,19.788c-1.659,0.267-3.31,0.569-4.954,0.899
		C121.172,20.912,122.844,20.817,124.365,19.788z"/>
	<path fill="#FFFFFF" d="M124.365,19.788c-1.659,0.267-3.31,0.569-4.954,0.899c0.489,0.062,0.971,0.1,1.444,0.1
		C122.089,20.787,123.266,20.531,124.365,19.788L124.365,19.788z"/>
</g>
<g>
	<path fill-rule="evenodd" clip-rule="evenodd" fill="#00AEEF" d="M50.189,24.36c-5.086-1.613-4.575-7.439-3.655-11.175
		c2.94,2.816,5.927,5.243,8.893,7.227c-1.221,0.843-2.392,1.751-3.527,2.633C51.332,23.485,50.764,23.926,50.189,24.36z"/>
	<path fill="#FFFFFF" d="M46.741,13.875c2.666,2.513,5.367,4.707,8.055,6.542c-1.074,0.762-2.108,1.564-3.115,2.346
		c-0.517,0.401-1.034,0.802-1.557,1.199C45.754,22.441,45.964,17.43,46.741,13.875 M46.341,12.502
		c-1.383,5.088-1.313,10.727,3.917,12.253c1.935-1.452,3.783-2.989,5.81-4.348C52.841,18.295,49.609,15.68,46.341,12.502
		L46.341,12.502z"/>
</g>
<g>
	<path fill-rule="evenodd" clip-rule="evenodd" fill="#00AEEF" d="M59.062,35.987c-2.544-1.071-5.069-2.35-7.51-3.803
		c0.053-4.413,2.267-8.29,5.961-10.441c3.479,2.097,6.985,3.65,10.705,4.74v4.222C65.006,33.64,61.846,35.463,59.062,35.987z"/>
	<path fill="#FFFFFF" d="M57.513,22.16c3.364,2.009,6.759,3.516,10.348,4.591v3.797c-3.082,2.791-6.101,4.537-8.76,5.067
		c-2.433-1.03-4.848-2.25-7.187-3.632C52.029,27.856,54.094,24.233,57.513,22.16 M57.519,21.329
		c-3.517,1.969-6.34,5.901-6.325,11.059c2.62,1.571,5.229,2.883,7.828,3.971c3.577-0.634,7.018-3.158,9.554-5.495
		c0-1.551,0-3.099,0-4.648C64.855,25.148,61.185,23.559,57.519,21.329L57.519,21.329z"/>
</g>
<g>
	<path fill-rule="evenodd" clip-rule="evenodd" fill="#00AEEF" d="M96.793,37.39c-3.26,0-6.426-2.188-8.558-3.686
		c-0.489-2.171-0.682-4.102-0.577-5.749c4.103-0.427,8.568-1.257,13.633-2.534c0.176,0.162,0.349,0.328,0.517,0.499
		c0.005,0.6,0.021,1.209,0.035,1.819c0.091,3.702,0.184,7.531-1.912,8.932C98.967,37.14,97.897,37.39,96.793,37.39
		C96.793,37.39,96.794,37.39,96.793,37.39z"/>
	<path fill="#FFFFFF" d="M101.19,25.815c0.094,0.088,0.18,0.172,0.262,0.253c0.006,0.555,0.02,1.117,0.034,1.679
		c0.087,3.582,0.178,7.285-1.715,8.599c-0.943,0.455-1.945,0.686-2.978,0.686c-3.097,0-6.041-1.998-8.239-3.542
		c-0.43-1.952-0.616-3.701-0.554-5.212C91.985,27.846,96.311,27.039,101.19,25.815 M101.391,25.027
		c-4.901,1.243-9.567,2.154-14.066,2.603c-0.149,1.693,0.014,3.768,0.592,6.288c2.362,1.661,5.508,3.831,8.876,3.831
		c1.096,0,2.214-0.229,3.337-0.78c2.644-1.767,2.065-6.759,2.035-11.194C101.917,25.514,101.656,25.268,101.391,25.027
		L101.391,25.027z"/>
</g>
<g>
	<path fill-rule="evenodd" clip-rule="evenodd" fill="#00AEEF" d="M48.948,30.535c-2.789-1.84-5.569-3.973-8.279-6.349
		c0.818-0.543,1.722-0.828,2.635-0.828C45.8,23.358,48.444,25.584,48.948,30.535z"/>
	<path fill="#FFFFFF" d="M43.303,23.715c2.203,0,4.531,1.896,5.189,6.085c-2.43-1.644-4.849-3.508-7.218-5.561
		C41.921,23.895,42.61,23.715,43.303,23.715 M43.303,23c-1.107,0-2.222,0.39-3.207,1.158c3.102,2.749,6.19,5.092,9.266,7.074
		C49.044,25.67,46.201,23,43.303,23L43.303,23z"/>
</g>
<g>
	<path fill-rule="evenodd" clip-rule="evenodd" fill="#00AEEF" d="M80.558,38.634c-3.941-0.281-6.082-2.144-7.188-3.674
		c-1.531-2.119-2.062-4.918-1.444-7.55c3.001,0.601,6.071,0.893,9.371,0.893c1.364,0,2.783-0.052,4.224-0.155v6.631
		c-0.537,0.499-1.222,0.859-1.944,1.239C82.381,36.645,81.147,37.294,80.558,38.634z"/>
	<path fill="#FFFFFF" d="M72.202,27.828c2.914,0.56,5.897,0.832,9.095,0.832c1.251,0,2.549-0.044,3.866-0.13v6.088
		c-0.488,0.417-1.105,0.742-1.754,1.083c-1.128,0.593-2.39,1.257-3.067,2.557c-2.905-0.263-5.209-1.469-6.683-3.508
		C72.253,32.805,71.726,30.26,72.202,27.828 M71.663,26.99c-1.368,5.022,1.302,11.602,9.131,12.017
		c0.803-2.252,3.557-2.549,5.084-4.077c0-2.386,0-4.778,0-7.169c-1.545,0.12-3.072,0.183-4.582,0.183
		C78.019,27.944,74.817,27.647,71.663,26.99L71.663,26.99z"/>
</g>
<g>
	<path fill-rule="evenodd" clip-rule="evenodd" fill="#00AEEF" d="M105.975,36.783c-0.516-0.304-0.999-0.646-1.439-1.021
		c-0.954-5.751,0.166-9.9,3.242-12.008c2.407-0.612,4.517-1.128,6.45-1.577c1.456,0.062,3.136,0.337,4.914,0.824
		c0.233,2.408-0.151,4.163-0.556,6.017c-0.319,1.457-0.648,2.962-0.643,4.789c-3.93,0.888-7.854,1.908-11.653,2.894L105.975,36.783z
		"/>
	<path fill="#FFFFFF" d="M114.214,22.548c1.423,0.058,2.965,0.305,4.592,0.735c0.179,2.228-0.187,3.898-0.571,5.659
		c-0.307,1.4-0.622,2.843-0.649,4.58c-3.843,0.875-7.675,1.87-11.385,2.833l-0.171,0.044c-0.412-0.251-0.802-0.528-1.163-0.826
		c-0.886-5.504,0.169-9.469,3.061-11.488C110.268,23.49,112.327,22.986,114.214,22.548 M114.146,21.829
		c-2.185,0.507-4.357,1.044-6.518,1.594c-3.066,2.064-4.51,6.156-3.424,12.526c0.538,0.469,1.115,0.872,1.718,1.216l0.457-0.118
		c3.942-1.024,7.927-2.058,11.924-2.955c-0.096-4.273,1.693-6.669,1.168-11.37C117.577,22.187,115.79,21.887,114.146,21.829
		L114.146,21.829z"/>
</g>
<g>
	<path fill-rule="evenodd" clip-rule="evenodd" fill="#00AEEF" d="M120.614,33.228c0.027-4.1,1.078-7.396,2.977-9.316
		c1.239-1.253,2.795-1.889,4.623-1.889c1.848,0,3.932,0.651,6.197,1.936c0.378,2.725,0.41,5.168,0.095,7.271
		C130.376,31.484,125.823,32.14,120.614,33.228z"/>
	<path fill="#FFFFFF" d="M128.214,22.38c1.744,0,3.716,0.606,5.866,1.803c0.334,2.498,0.372,4.75,0.112,6.708
		c-3.954,0.261-8.291,0.883-13.214,1.896c0.096-3.798,1.102-6.839,2.866-8.624C125.015,22.98,126.485,22.38,128.214,22.38
		 M128.214,21.665c-5.203,0-8.034,4.963-7.957,12.003c4.861-1.03,9.732-1.821,14.558-2.099c0.37-2.217,0.359-4.814-0.074-7.834
		C132.274,22.31,130.09,21.665,128.214,21.665L128.214,21.665z"/>
</g>
<g>
	<path fill-rule="evenodd" clip-rule="evenodd" fill="#00AEEF" d="M149.648,32.724c-1.722-0.686-3.558-1.134-5.468-1.333
		c-1.804-0.189-3.708-0.286-5.658-0.286c-0.292,0-0.585,0.002-0.878,0.006c-0.175-3.264,0.503-5.811,1.967-7.382
		c1.152-1.237,2.764-1.864,4.79-1.864c1.55,0,3.314,0.371,5.247,1.104V32.724z"/>
	<path fill="#FFFFFF" d="M144.401,22.223c1.445,0,3.088,0.334,4.889,0.994v8.987c-1.608-0.592-3.311-0.985-5.072-1.169
		c-1.817-0.191-3.733-0.288-5.695-0.288c-0.179,0-0.358,0.001-0.537,0.002c-0.106-2.999,0.541-5.333,1.887-6.776
		C140.955,22.812,142.479,22.223,144.401,22.223 M144.401,21.507c-4.911,0-7.542,3.598-7.093,9.967
		c0.405-0.008,0.811-0.012,1.215-0.012c1.884,0,3.759,0.088,5.621,0.284c2.221,0.232,4.165,0.782,5.863,1.513
		c0-3.513,0-7.026,0-10.537C147.907,21.902,146.029,21.507,144.401,21.507L144.401,21.507z"/>
</g>
<g>
	<path fill-rule="evenodd" clip-rule="evenodd" fill="#00AEEF" d="M159.039,40.501c-0.424-0.649-0.834-1.218-1.249-1.731
		c-1.563-1.932-3.415-3.533-5.506-4.759c0.009-1.177,0.061-2.415,0.111-3.614c0.088-2.116,0.179-4.299,0.043-6.242
		c7.475,1.165,12.217,4.032,14.483,8.755C165.537,36.299,162.409,39.307,159.039,40.501z"/>
	<path fill="#FFFFFF" d="M152.822,24.58c7.021,1.175,11.513,3.911,13.707,8.342c-1.34,3.152-4.218,5.943-7.348,7.146
		c-0.375-0.562-0.742-1.063-1.113-1.522c-1.546-1.911-3.369-3.502-5.425-4.736c0.014-1.109,0.062-2.271,0.109-3.397
		C152.834,28.446,152.918,26.424,152.822,24.58 M152.045,23.734c0.288,3.166-0.108,7.016-0.121,10.482
		c2.48,1.419,4.311,3.201,5.587,4.778c0.498,0.616,0.951,1.266,1.378,1.935c3.791-1.233,7.043-4.52,8.422-8.031
		C164.723,27.343,159.159,24.765,152.045,23.734L152.045,23.734z"/>
</g>
<g>
	<path fill-rule="evenodd" clip-rule="evenodd" fill="#00AEEF" d="M76.252,40.206c-4.67-0.399-9.238-1.357-13.596-2.852
		c1.72-1.295,3.766-2.002,5.823-2.002C71.846,35.352,74.711,37.154,76.252,40.206z"/>
	<path fill="#FFFFFF" d="M68.48,35.709c3.008,0,5.599,1.503,7.135,4.08c-4.171-0.405-8.254-1.26-12.173-2.548
		C64.973,36.246,66.722,35.709,68.48,35.709 M68.48,34.994c-2.27,0-4.6,0.822-6.551,2.485c5.017,1.787,9.989,2.765,14.909,3.133
		C75.226,36.889,71.924,34.994,68.48,34.994L68.48,34.994z"/>
</g>
<g>
	<path fill-rule="evenodd" clip-rule="evenodd" fill="#00AEEF" d="M82.382,40.426c1.282-1.649,3.347-2.582,5.769-2.582
		c1.873,0,3.82,0.572,5.463,1.589C89.649,40.057,85.959,40.383,82.382,40.426z"/>
	<path fill="#FFFFFF" d="M88.151,38.202c1.474,0,2.995,0.368,4.367,1.036c-3.258,0.475-6.335,0.744-9.324,0.816
		C84.413,38.863,86.153,38.202,88.151,38.202 M88.151,37.486c-2.614,0-5.067,1.053-6.456,3.302
		c4.333-0.008,8.622-0.438,12.863-1.146C92.667,38.233,90.352,37.486,88.151,37.486L88.151,37.486z"/>
</g>
<g>
	<path fill-rule="evenodd" clip-rule="evenodd" fill="#00AEEF" d="M166.159,55.826c-1.314,0-2.496-0.483-3.517-1.436
		c0.325-3.686-0.423-7.654-2.115-11.213c0.716-1.898,2.596-4.912,7.307-4.912c1.267,0,2.663,0.223,4.152,0.663
		c0.399,0.909,0.761,1.835,1.076,2.759v10.402C170.646,54.534,168.261,55.826,166.159,55.826
		C166.159,55.826,166.159,55.826,166.159,55.826z"/>
	<path fill="#FFFFFF" d="M167.834,38.623c1.188,0,2.495,0.202,3.892,0.602c0.361,0.832,0.689,1.678,0.979,2.521V51.94
		c-2.312,2.31-4.571,3.528-6.547,3.528c-1.166,0-2.223-0.412-3.146-1.225c0.288-3.649-0.452-7.558-2.097-11.081
		C161.638,41.35,163.452,38.623,167.834,38.623 M167.834,37.907c-4.166,0-6.627,2.306-7.695,5.289
		c1.717,3.552,2.5,7.538,2.13,11.333c1.043,1.025,2.354,1.655,3.889,1.655c2.055,0,4.511-1.128,7.262-3.949
		c0-3.533,0-7.071,0-10.607c-0.344-1.014-0.736-2.013-1.173-2.995C170.604,38.132,169.136,37.907,167.834,37.907L167.834,37.907z"/>
</g>
<g>
	<path fill-rule="evenodd" clip-rule="evenodd" fill="#00AEEF" d="M102.195,54.595c-2.478,0-4.426-0.844-5.793-2.508
		c-0.233-1.746-0.235-3.442-0.005-5.054l7.446,7.448C103.272,54.557,102.72,54.595,102.195,54.595
		C102.195,54.595,102.195,54.595,102.195,54.595z"/>
	<path fill="#FFFFFF" d="M96.664,47.807l6.396,6.396c-0.296,0.022-0.585,0.034-0.865,0.034c-2.326,0-4.159-0.773-5.452-2.3
		C96.56,50.52,96.534,49.136,96.664,47.807 M96.157,46.287c-0.335,1.798-0.393,3.809-0.096,5.947
		c1.576,1.972,3.763,2.718,6.134,2.718c0.785,0,1.589-0.082,2.398-0.228L96.157,46.287L96.157,46.287z"/>
</g>
<g>
	<path fill-rule="evenodd" clip-rule="evenodd" fill="#00AEEF" d="M126.545,72.201c-3.602-1.176-5.129-3.458-5.761-5.411
		c2.806,1.357,5.626,2.42,8.403,3.165C128.395,70.807,127.509,71.561,126.545,72.201z"/>
	<path fill="#FFFFFF" d="M121.44,67.497c2.361,1.094,4.729,1.979,7.07,2.643c-0.622,0.617-1.298,1.174-2.019,1.666
		C123.635,70.828,122.176,69.12,121.44,67.497 M120.229,66.118c0.636,2.812,2.575,5.292,6.37,6.476
		c1.23-0.797,2.308-1.747,3.246-2.837C126.37,68.877,123.128,67.574,120.229,66.118L120.229,66.118z"/>
</g>
<g>
	<path fill-rule="evenodd" clip-rule="evenodd" fill="#00AEEF" d="M95.457,69.011c0.323-4.146,0.355-6.765,0.345-7.976l0.154-6.088
		c1.305,0.405,2.587,1.251,3.817,2.521v10.785C98.427,68.622,96.979,68.876,95.457,69.011z"/>
	<path fill="#FFFFFF" d="M96.3,55.448c1.058,0.417,2.102,1.143,3.115,2.166v10.364c-1.124,0.292-2.319,0.505-3.568,0.636
		c0.294-3.915,0.323-6.407,0.312-7.582l0-0.06L96.3,55.448 M95.609,54.482l-0.166,6.472c-0.003,0.117,0.066,2.966-0.376,8.448
		c1.747-0.129,3.463-0.417,5.063-0.877c0-3.731,0-7.466,0-11.2C98.61,55.725,97.078,54.829,95.609,54.482L95.609,54.482z"/>
</g>
<g>
	<path fill-rule="evenodd" clip-rule="evenodd" fill="#00AEEF" d="M157.342,70.891c-1.739,0-3.372-0.515-4.987-1.573
		c-0.137-0.507-0.255-1.025-0.365-1.604c3.305-1.752,8.722-5.41,10.272-11.138c3.103,1.809,4.478,5.771,3.7,10.729
		C163.656,68.994,160.615,70.891,157.342,70.891C157.342,70.891,157.343,70.891,157.342,70.891z"/>
	<path fill="#FFFFFF" d="M162.472,57.131c2.664,1.812,3.831,5.452,3.159,9.973c-2.247,1.633-5.175,3.429-8.289,3.429
		c-1.626,0-3.158-0.472-4.677-1.44c-0.1-0.38-0.189-0.769-0.273-1.188C157.634,65.075,161.169,61.29,162.472,57.131 M162.027,56.042
		c-1.129,4.903-5.426,8.877-10.437,11.478c0.118,0.651,0.26,1.319,0.456,2.022c1.814,1.216,3.588,1.706,5.297,1.706
		c3.273,0,6.312-1.797,8.95-3.741C167.301,61.373,165.06,57.563,162.027,56.042L162.027,56.042z"/>
</g>
<g>
	<path fill-rule="evenodd" clip-rule="evenodd" fill="#00AEEF" d="M170.32,67.634c-1.834-2.373-2.423-5.592-1.658-9.131
		c1.753-2.158,3.608-3.298,5.367-3.298c0.25,0,0.5,0.023,0.748,0.068c-0.019,0.257-0.038,0.513-0.065,0.77
		C174.27,60.167,172.793,64.063,170.32,67.634z"/>
	<path fill="#FFFFFF" d="M174.029,55.563c0.122,0,0.244,0.006,0.366,0.018c-0.012,0.141-0.024,0.283-0.039,0.424
		c-0.418,3.903-1.778,7.601-4.046,11.007c-1.522-2.225-1.989-5.147-1.315-8.35C170.661,56.634,172.399,55.563,174.029,55.563
		 M174.029,54.848c-1.771,0-3.721,1.038-5.698,3.496c-0.935,4.218,0.093,7.649,2.01,9.881c2.51-3.499,4.235-7.553,4.727-12.144
		c0.039-0.363,0.062-0.727,0.088-1.091C174.79,54.896,174.414,54.848,174.029,54.848L174.029,54.848z"/>
</g>
<g>
	<path fill-rule="evenodd" clip-rule="evenodd" fill="#00AEEF" d="M106.857,70.803c-0.815,0-1.607-0.173-2.418-0.53
		c-1.177-1.709-1.038-4.891-0.903-7.97c0.071-1.622,0.144-3.296,0.026-4.773c0.759-0.392,1.559-0.708,2.384-0.945l0.234,0.234
		c0.044,0.044,4.314,4.226,11.046,8.091c-0.018,0.426-0.056,0.861-0.113,1.3c-1.516,0.483-2.925,1.356-4.291,2.202
		C110.837,69.642,108.961,70.803,106.857,70.803C106.858,70.803,106.858,70.803,106.857,70.803z"/>
	<path fill="#FFFFFF" d="M105.844,56.988l0.086,0.086c0.043,0.042,4.266,4.178,10.928,8.036c-0.016,0.274-0.041,0.552-0.073,0.832
		c-1.473,0.507-2.833,1.349-4.152,2.166c-1.941,1.202-3.774,2.337-5.776,2.337c-0.733,0-1.448-0.15-2.179-0.459
		c-1.048-1.632-0.914-4.699-0.785-7.667c0.068-1.546,0.138-3.14,0.043-4.577C104.549,57.44,105.188,57.188,105.844,56.988
		 M106.051,56.184c-0.974,0.263-1.94,0.641-2.866,1.14c0.414,4.343-0.987,10.49,1.019,13.235c0.93,0.423,1.81,0.601,2.653,0.601
		c3.793,0,6.867-3.594,10.579-4.675c0.09-0.622,0.14-1.213,0.155-1.779c-6.751-3.845-11.084-8.068-11.158-8.141L106.051,56.184
		L106.051,56.184z"/>
</g>
<g>
	<path fill-rule="evenodd" clip-rule="evenodd" fill="#00AEEF" d="M125.237,81.485c-5.589-1.588-11.173-4.124-16.606-7.539v-0.169
		c2.688-2.38,5.871-3.742,8.755-3.742c2.147,0,3.995,0.758,5.342,2.19C124.581,74.196,125.446,77.394,125.237,81.485z"/>
	<path fill="#FFFFFF" d="M117.385,70.394c2.046,0,3.804,0.718,5.082,2.078c1.717,1.826,2.552,4.77,2.431,8.543
		c-5.309-1.556-10.611-3.971-15.781-7.186C111.686,71.64,114.675,70.394,117.385,70.394 M117.385,69.678
		c-2.98,0-6.301,1.405-9.113,3.939c0,0.175,0,0.351,0,0.526c4.611,2.915,10.462,5.902,17.15,7.765
		c0.051-0.054,0.107-0.094,0.157-0.151C126.098,73.32,122.183,69.678,117.385,69.678L117.385,69.678z"/>
</g>
<g>
	<path fill-rule="evenodd" clip-rule="evenodd" fill="#00AEEF" d="M138.721,83.43c-2.944,0-5.99-0.3-9.054-0.892
		c-0.814-0.79-1.389-1.77-1.711-2.916c-0.655-2.342-0.527-4.303,0.38-5.829c0.872-1.465,2.475-2.507,4.64-3.016
		c1.954,0.324,3.874,0.488,5.707,0.488c0.248,0,0.495-0.003,0.744-0.008c0.573-0.013,1.197-0.057,1.857-0.131
		c1.543,0.415,2.996,0.984,4.32,1.694c0.514,4.659-1.64,8.605-5.791,10.594l-0.108,0.004c-0.329,0.007-0.656,0.011-0.982,0.011
		C138.722,83.43,138.721,83.43,138.721,83.43z"/>
	<path fill="#FFFFFF" d="M132.989,71.142c1.949,0.319,3.863,0.481,5.693,0.481c0.25,0,0.5-0.003,0.752-0.008
		c0.563-0.013,1.175-0.055,1.821-0.126c1.428,0.389,2.775,0.912,4.011,1.558c0.417,4.395-1.635,8.11-5.544,10.013l-0.027,0.001
		c-0.326,0.007-0.651,0.011-0.975,0.011c-2.888,0-5.874-0.291-8.88-0.865c-0.728-0.732-1.246-1.633-1.54-2.681
		c-0.628-2.245-0.513-4.111,0.342-5.549C129.455,72.612,130.956,71.634,132.989,71.142 M132.964,70.413
		c-4.141,0.947-6.868,3.89-5.353,9.306c0.367,1.309,1.031,2.349,1.884,3.15c2.955,0.577,6.037,0.919,9.225,0.919
		c0.33,0,0.66-0.004,0.991-0.011c0.062-0.001,0.126-0.006,0.188-0.008c3.76-1.774,6.729-5.622,6.036-11.174
		c-1.442-0.792-3.02-1.404-4.626-1.831c-0.648,0.075-1.282,0.123-1.892,0.137c-0.246,0.005-0.491,0.008-0.736,0.008
		C136.733,70.907,134.824,70.724,132.964,70.413L132.964,70.413z"/>
</g>
<g>
	<path fill-rule="evenodd" clip-rule="evenodd" fill="#00AEEF" d="M160.896,75.732c-0.105-0.662-0.21-1.323-0.321-1.979
		c2.357-2.06,4.854-3.148,7.231-3.148c0.054,0,0.107,0,0.161,0.001c-1.952,2.161-4.286,4.134-6.951,5.878L160.896,75.732z"/>
	<path fill="#FFFFFF" d="M167.12,70.995c-1.69,1.771-3.646,3.407-5.838,4.885c-0.011-0.068-0.021-0.136-0.032-0.204
		c-0.095-0.596-0.189-1.191-0.288-1.783C162.979,72.169,165.088,71.178,167.12,70.995 M167.807,70.248
		c-2.589,0-5.243,1.247-7.618,3.37c0.197,1.146,0.373,2.312,0.562,3.465c2.963-1.883,5.694-4.147,7.965-6.783
		C168.414,70.265,168.111,70.248,167.807,70.248L167.807,70.248z"/>
</g>
<g>
	<path fill-rule="evenodd" clip-rule="evenodd" fill="#00AEEF" d="M86.787,88.686c-0.573,0-1.15-0.046-1.761-0.14
		c-1.028-0.951-1.881-2.712-2.43-5.003c4.012,0.274,7.547,0.278,7.584,0.278l4.696,0.946c0.228,0.901,0.458,1.8,0.701,2.687
		c-0.318-0.025-0.633-0.039-0.939-0.039c-1.568,0-2.814,0.329-4.02,0.647C89.405,88.383,88.259,88.686,86.787,88.686L86.787,88.686z
		"/>
	<path fill="#FFFFFF" d="M83.063,83.932c3.506,0.223,6.545,0.244,7.045,0.246l4.477,0.896c0.165,0.651,0.338,1.323,0.517,1.993
		c-0.156-0.006-0.311-0.009-0.464-0.009c-1.615,0-2.884,0.335-4.111,0.659c-1.19,0.314-2.314,0.611-3.74,0.611
		c-0.52,0-1.044-0.039-1.597-0.119C84.318,87.357,83.578,85.866,83.063,83.932 M82.14,83.152c0.535,2.493,1.455,4.614,2.725,5.731
		c0.7,0.113,1.335,0.161,1.922,0.161c3.038,0,4.809-1.271,7.851-1.271c0.444,0,0.916,0.027,1.423,0.089
		c-0.313-1.119-0.605-2.259-0.893-3.402l-4.988-0.998C90.18,83.463,86.382,83.462,82.14,83.152L82.14,83.152z"/>
</g>
<g>
	<path fill-rule="evenodd" clip-rule="evenodd" fill="#00AEEF" d="M99.312,87.473c-0.299-0.583-0.593-1.233-0.905-2l1.244,0.249
		l1.981,0.933C100.957,87.067,100.192,87.336,99.312,87.473z"/>
	<path fill="#FFFFFF" d="M98.997,85.956l0.5,0.1l1.326,0.619c-0.403,0.178-0.838,0.311-1.31,0.401
		C99.341,86.73,99.171,86.36,98.997,85.956 M97.831,84.993c0.388,0.996,0.802,1.965,1.281,2.869
		c1.334-0.166,2.388-0.613,3.236-1.266l-2.626-1.225L97.831,84.993L97.831,84.993z"/>
</g>
<g>
	<path fill-rule="evenodd" clip-rule="evenodd" fill="#00AEEF" d="M100.712,78.354l-4.663-0.358
		c-0.18-0.698-0.874-3.449-1.046-4.122c0.083-0.775,0.157-1.513,0.224-2.219c1.72-0.389,3.182-0.578,4.463-0.578
		c2.2,0,3.897,0.552,5.185,1.686c0.146,2.169,0.268,4.884,0.018,7.263L100.712,78.354z"/>
	<path fill="#FFFFFF" d="M99.69,71.435c2.045,0,3.631,0.492,4.838,1.501c0.13,1.984,0.235,4.4,0.054,6.58l-3.686-1.474l-0.102-0.041
		l-0.109-0.008l-4.353-0.335c-0.158-0.615-0.313-1.232-0.469-1.849c-0.165-0.654-0.33-1.309-0.498-1.961
		c0.071-0.659,0.135-1.292,0.193-1.9C97.143,71.603,98.499,71.435,99.69,71.435 M99.69,70.719c-1.543,0-3.176,0.267-4.795,0.646
		c-0.074,0.801-0.158,1.644-0.254,2.536c0.379,1.474,0.746,2.96,1.126,4.432l4.863,0.374l4.563,1.825
		c0.303-2.352,0.223-5.087,0.028-7.938C103.724,71.214,101.792,70.719,99.69,70.719L99.69,70.719z"/>
</g>
<g>
	<path fill-rule="evenodd" clip-rule="evenodd" fill="#00AEEF" d="M145.574,82.759c1.006-3.66,2.209-7.216,3.669-10.848
		c0.333-0.033,0.657-0.049,0.967-0.049c2.224,0,3.586,0.828,5.029,1.704c0.791,0.481,1.606,0.977,2.572,1.325
		c0.102,1.238,0.31,2.346,0.497,3.221C154.317,80.311,149.932,81.91,145.574,82.759z"/>
	<path fill="#FFFFFF" d="M150.209,72.219c2.125,0,3.445,0.803,4.844,1.652c0.748,0.455,1.518,0.922,2.421,1.275
		c0.098,1.047,0.267,1.994,0.429,2.779c-3.722,2.021-7.779,3.518-11.829,4.367c0.951-3.381,2.075-6.682,3.419-10.045
		C149.739,72.229,149.979,72.219,150.209,72.219 M150.209,71.503c-0.381,0-0.785,0.023-1.218,0.075
		c-1.492,3.689-2.814,7.55-3.913,11.637c4.476-0.806,9.243-2.464,13.636-4.92c-0.255-1.155-0.472-2.349-0.564-3.667
		C155.376,73.718,153.901,71.503,150.209,71.503L150.209,71.503z"/>
</g>
<g>
	<path fill-rule="evenodd" clip-rule="evenodd" fill="#00AEEF" d="M53.281,96.688c-0.686-0.087-1.267-0.163-1.69-0.223
		c-0.494-0.071-0.781-0.229-0.855-0.47c-0.227-0.744,1.146-2.433,2.287-3.506c0.142,0.074,0.349,0.173,0.635,0.292
		C53.711,94.001,53.585,95.313,53.281,96.688z"/>
	<path fill="#FFFFFF" d="M53.088,92.92c0.066,0.031,0.139,0.064,0.219,0.1c0.026,1.031-0.077,2.127-0.309,3.272
		c-0.542-0.069-1.004-0.131-1.358-0.181c-0.381-0.054-0.546-0.161-0.563-0.22C50.944,95.453,51.872,94.103,53.088,92.92
		 M52.971,92.05c0,0-4.77,4.293-1.431,4.77c0.49,0.07,1.188,0.161,2.017,0.264c0.396-1.66,0.531-3.181,0.445-4.55
		C53.262,92.242,52.971,92.05,52.971,92.05L52.971,92.05z"/>
</g>
<g>
	<path fill-rule="evenodd" clip-rule="evenodd" fill="#00AEEF" d="M124.052,103.579c-1.24,0-2.317-0.299-3.287-0.912l-0.437-5.182
		c1.469-0.116,5.35-0.377,10.36-0.377c0.86,0,1.754,0.008,2.675,0.025v3.699c-0.875,0.28-1.77,0.63-2.711,0.999
		C128.459,102.689,126.189,103.579,124.052,103.579L124.052,103.579z"/>
	<path fill="#FFFFFF" d="M130.689,97.466c0.748,0,1.522,0.006,2.317,0.019v3.087c-0.806,0.268-1.625,0.589-2.484,0.925
		c-2.164,0.847-4.4,1.724-6.47,1.724c-1.105,0-2.073-0.251-2.945-0.765l-0.392-4.642C122.392,97.69,126.055,97.466,130.689,97.466
		 M130.689,96.75c-5.425,0-9.505,0.303-10.717,0.405c-0.006,0.039-0.014,0.079-0.02,0.118l0.472,5.598
		c1.146,0.77,2.369,1.065,3.628,1.065c3.212,0,6.662-1.926,9.67-2.841c0-1.437,0-2.875,0-4.312
		C132.674,96.76,131.66,96.75,130.689,96.75L130.689,96.75z"/>
</g>
<g>
	<path fill-rule="evenodd" clip-rule="evenodd" fill="#00AEEF" d="M106.778,100.108c-3.55-3.014-4.338-8.163-1.847-11.912
		l1.794,0.837c0.431,0.109,8.3,1.98,11.279,2.354c-1.623,0.75-5.536,2.196-8.383,3.187l-0.447,0.155l3.269,4.671L106.778,100.108z"
		/>
	<path fill="#FFFFFF" d="M105.064,88.653l1.51,0.705l0.066,0.031l0.07,0.017c0.812,0.193,6.607,1.565,10.01,2.146
		c-1.778,0.729-4.593,1.771-7.217,2.685l-0.894,0.311l0.543,0.775l2.657,3.796l-4.918,0.615
		C103.661,96.894,102.902,92.185,105.064,88.653 M104.808,87.744c-2.681,3.751-2.171,9.425,1.86,12.738l6.409-0.801l-3.338-4.77
		c0,0,10.971-3.817,9.063-3.817s-11.925-2.386-11.925-2.386L104.808,87.744L104.808,87.744z"/>
</g>
<g>
	<path fill-rule="evenodd" clip-rule="evenodd" fill="#00AEEF" d="M79.725,101.568c-2.114-0.559-4.152-1.104-5.932-1.581
		c-0.78-1.056-1.397-2.432-1.922-4.293c2.415,0.186,3.929,0.263,5.149,0.263c2.384,0,3.666-0.309,5.757-0.949
		C82.289,97.404,81.196,99.756,79.725,101.568z"/>
	<path fill="#FFFFFF" d="M82.292,95.528c-0.51,2.041-1.475,4.062-2.701,5.635c-1.984-0.525-3.896-1.036-5.582-1.488
		c-0.65-0.911-1.185-2.07-1.647-3.584c2.128,0.158,3.52,0.225,4.66,0.225C79.222,96.314,80.497,96.058,82.292,95.528 M83.236,94.492
		c-2.42,0.752-3.665,1.107-6.215,1.107c-1.371,0-3.118-0.103-5.628-0.301c0.498,1.899,1.151,3.643,2.188,5.003
		c1.869,0.502,4.033,1.08,6.273,1.672C81.498,100.021,82.781,97.284,83.236,94.492L83.236,94.492z"/>
</g>
<g>
	<path fill-rule="evenodd" clip-rule="evenodd" fill="#00AEEF" d="M74.406,86.811c0.212-0.054,0.423-0.109,0.633-0.165
		c1.213-0.32,2.359-0.623,3.833-0.623c0.572,0,1.149,0.046,1.759,0.139c1.162,1.085,1.915,2.493,2.244,4.194L74.406,86.811z"/>
	<path fill="#FFFFFF" d="M78.873,86.38c0.52,0,1.043,0.039,1.595,0.119c0.907,0.874,1.543,1.965,1.9,3.256l-6.848-2.866
		C76.571,86.616,77.602,86.38,78.873,86.38 M78.873,85.665c-2.227,0-3.771,0.681-5.632,1.045l10.089,4.224
		c-0.249-1.944-1.03-3.743-2.536-5.109C80.094,85.712,79.459,85.665,78.873,85.665L78.873,85.665z"/>
</g>
<g>
	<path fill-rule="evenodd" clip-rule="evenodd" fill="#00AEEF" d="M144.805,104.811c-2.853,0-4.313-1.354-5.86-2.788
		c-0.845-0.784-1.717-1.592-2.831-2.167v-2.646c4.599,0.18,8.898,0.592,12.791,1.225c-0.665,3.504-1.926,5.48-4.061,6.375
		L144.805,104.811z"/>
	<path fill="#FFFFFF" d="M136.472,97.583c4.302,0.181,8.335,0.566,12.01,1.147c-0.648,3.113-1.811,4.897-3.711,5.723
		c-2.69-0.011-4.096-1.313-5.582-2.692c-0.814-0.755-1.654-1.533-2.717-2.12V97.583 M135.757,96.839c0,1.08,0,2.16,0,3.239
		c3.191,1.523,4.338,5.09,9.048,5.09c0.037,0,0.074,0,0.111,0c2.712-1.101,3.843-3.78,4.406-7.026
		C144.708,97.371,140.013,96.994,135.757,96.839L135.757,96.839z"/>
</g>
<g>
	<path fill-rule="evenodd" clip-rule="evenodd" fill="#00AEEF" d="M67.853,98.382c-0.054-0.01-7.012-0.784-12.024-1.383
		c0.156-1.165,0.444-2.261,0.856-3.267c1.162,0.28,3.199,0.681,3.293,0.7l0.292,0.058l3.11-7.867l0.837,8.3l0.261,0.051
		c0.036,0.007,0.901,0.173,2.296,0.295c1.164,0.102,2.208,0.191,3.161,0.27c0.211,1.073,0.33,2.249,0.354,3.504L67.853,98.382z"/>
	<path fill="#FFFFFF" d="M63.172,88.123l0.663,6.572l0.053,0.529l0.522,0.102c0.037,0.007,0.92,0.177,2.333,0.3
		c1.054,0.092,2.011,0.174,2.89,0.248c0.151,0.841,0.246,1.745,0.284,2.7c-1.23-0.333-1.97-0.535-1.971-0.535l-0.054-0.015
		l-0.055-0.006c-0.07-0.008-6.677-0.743-11.602-1.329c0.144-0.894,0.367-1.742,0.668-2.536c1.189,0.274,2.918,0.615,3.004,0.632
		l0.584,0.115l0.219-0.554L63.172,88.123 M63.589,85.123l-3.542,8.958c0,0-2.505-0.493-3.571-0.77c-0.511,1.16-0.879,2.495-1.046,4
		c5.033,0.604,12.329,1.416,12.329,1.416s1.118,0.305,2.894,0.785c-0.002-1.617-0.152-3.05-0.421-4.308
		c-1.024-0.084-2.153-0.181-3.426-0.292c-1.392-0.121-2.259-0.29-2.259-0.29L63.589,85.123L63.589,85.123z"/>
</g>
<g>
	<path fill-rule="evenodd" clip-rule="evenodd" fill="#00AEEF" d="M29.046,105.387c0.84-0.243,1.694-0.466,2.561-0.669
		C30.796,105.086,29.936,105.35,29.046,105.387z"/>
	<path fill="#FFFFFF" d="M33.818,103.885c-2.247,0.425-4.408,0.977-6.478,1.652c0.506,0.146,1.004,0.212,1.494,0.212
		C30.571,105.749,32.213,104.92,33.818,103.885L33.818,103.885z"/>
</g>
<g>
	<path fill-rule="evenodd" clip-rule="evenodd" fill="#00AEEF" d="M160.084,105.644c-1.668,0-3.221-0.689-4.866-1.418
		c-1.229-0.544-2.496-1.107-3.868-1.396c-0.164-1.612,0.047-2.853,0.295-3.898c4.879,0.976,9.049,2.349,12.405,4.083
		c-0.298,0.796-0.645,1.423-1.035,1.868C162.043,105.394,161.084,105.644,160.084,105.644
		C160.085,105.644,160.085,105.644,160.084,105.644z"/>
	<path fill="#FFFFFF" d="M151.917,99.351c4.562,0.937,8.485,2.225,11.682,3.835c-0.243,0.586-0.514,1.059-0.809,1.411
		c-0.9,0.463-1.787,0.689-2.706,0.689c-1.593,0-3.112-0.674-4.721-1.387c-1.169-0.519-2.373-1.053-3.68-1.362
		C151.584,101.266,151.726,100.236,151.917,99.351 M151.38,98.513c-0.332,1.325-0.589,2.725-0.355,4.616
		c3.257,0.597,5.949,2.872,9.06,2.872c0.999,0,2.04-0.234,3.157-0.833c0.506-0.558,0.921-1.361,1.252-2.326
		C160.679,100.821,156.12,99.438,151.38,98.513L151.38,98.513z"/>
</g>
<g>
	<path fill-rule="evenodd" clip-rule="evenodd" fill="#00AEEF" d="M91.902,104.014c-2.809,0-5.395-1.032-7.687-3.068
		c0.212-2.813,1.086-5.02,1.877-6.97c0.603-0.309,0.716-1.156,0.681-1.699c0.126-0.324,0.25-0.65,0.37-0.982
		c0.321,0.021,0.631,0.031,0.932,0.031c1.72,0,3.129-0.32,4.492-0.63c1.384-0.314,2.691-0.611,4.327-0.611
		c0.649,0,1.298,0.047,1.979,0.144c0.288,0.588,0.584,1.167,0.881,1.746c1.222,2.384,2.483,4.847,3.041,7.94
		C98.813,102.634,95.15,104.014,91.902,104.014C91.902,104.014,91.902,104.014,91.902,104.014z"/>
	<path fill="#FFFFFF" d="M96.893,90.442c0.573,0,1.146,0.038,1.742,0.114c0.262,0.531,0.531,1.056,0.8,1.581
		c1.233,2.407,2.4,4.686,2.964,7.612c-3.845,2.593-7.375,3.907-10.497,3.907c-2.664,0-5.124-0.962-7.315-2.861
		c0.227-2.62,1.039-4.714,1.791-6.569c0.602-0.387,0.79-1.193,0.758-1.892c0.086-0.221,0.17-0.442,0.253-0.667
		c0.23,0.011,0.46,0.017,0.687,0.017c1.76,0,3.188-0.325,4.571-0.639C94.009,90.735,95.298,90.442,96.893,90.442L96.893,90.442
		 M96.893,89.727c-3.353,0-5.461,1.241-8.818,1.241c-0.376,0-0.767-0.016-1.178-0.05c-0.154,0.443-0.318,0.876-0.487,1.306
		c0,0,0.129,1.264-0.592,1.478c-0.901,2.22-1.781,4.463-1.972,7.393c2.568,2.334,5.302,3.277,8.056,3.277
		c3.852,0,7.744-1.842,11.284-4.293c-0.682-4.073-2.524-6.977-4.074-10.177C98.307,89.778,97.574,89.727,96.893,89.727
		L96.893,89.727z"/>
</g>
<g>
	<path fill-rule="evenodd" clip-rule="evenodd" fill="#00AEEF" d="M58.034,117.191c-3.982-1.063-7.871-1.668-11.563-1.798
		c-0.793-3.069-1.699-7.134-1.947-11.892c0.048,0.001,0.096,0.001,0.143,0.001c0.726,0,1.422-0.09,2.127-0.275
		c2.786,0.091,5.631,0.39,8.46,0.888C56.932,108.329,57.843,112.61,58.034,117.191z"/>
	<path fill="#FFFFFF" d="M46.833,103.586c2.688,0.091,5.431,0.375,8.161,0.847c1.559,3.967,2.432,7.998,2.66,12.288
		c-3.748-0.969-7.41-1.531-10.904-1.675c-0.75-2.938-1.583-6.754-1.849-11.189C45.556,103.84,46.191,103.75,46.833,103.586
		 M46.751,102.868c-0.621,0.167-1.298,0.277-2.086,0.277c-0.167,0-0.34-0.005-0.519-0.016c0.207,4.68,1.033,8.737,2.044,12.613
		c4.044,0.117,8.059,0.797,11.92,1.84c0.093-0.07,0.2-0.127,0.289-0.202c-0.196-5.297-1.309-9.673-2.889-13.583
		C52.647,103.284,49.718,102.962,46.751,102.868L46.751,102.868z"/>
</g>
<g>
	<path fill-rule="evenodd" clip-rule="evenodd" fill="#00AEEF" d="M97.53,117.015c-0.677-0.499-1.257-1.156-1.733-1.964l1.827,0.677
		C97.611,115.991,97.584,116.444,97.53,117.015z"/>
	<path fill="#FFFFFF" d="M96.747,115.784l0.506,0.188c-0.006,0.097-0.013,0.207-0.021,0.328
		C97.062,116.14,96.9,115.968,96.747,115.784 M95.054,114.394c0.687,1.51,1.652,2.583,2.771,3.245
		c0.144-1.267,0.167-2.156,0.167-2.156L95.054,114.394L95.054,114.394z"/>
</g>
<g>
	<path fill-rule="evenodd" clip-rule="evenodd" fill="#00AEEF" d="M109.18,108.551c-1.86-0.296-3.529-0.594-4.679-0.806l4.705-1.161
		C109.238,107.254,109.229,107.913,109.18,108.551z"/>
	<path fill="#FFFFFF" d="M108.863,107.037c0.008,0.372,0.002,0.738-0.016,1.099c-0.951-0.154-1.844-0.306-2.633-0.445
		L108.863,107.037 M109.537,106.134l-6.714,1.656c0,0,2.998,0.596,6.679,1.174C109.594,108.074,109.61,107.131,109.537,106.134
		L109.537,106.134z"/>
</g>
<g>
	<path fill-rule="evenodd" clip-rule="evenodd" fill="#00AEEF" d="M31.273,108.444c1.153-0.57,2.151-1.299,3.118-2.005
		c1.862-1.358,3.625-2.645,6.437-2.928l0.271,0.998c0.929,3.413,1.889,6.939,2.368,10.868l-0.032,0.001
		c-4.423,0.167-8.512,0.853-12.162,2.041V108.444z"/>
	<path fill="#FFFFFF" d="M40.563,103.902l0.19,0.7c0.895,3.289,1.819,6.682,2.31,10.433c-4.132,0.183-7.971,0.819-11.433,1.894
		v-8.265c1.096-0.566,2.048-1.261,2.972-1.936C36.355,105.45,38.017,104.237,40.563,103.902 M41.095,103.129
		c-4.745,0.352-6.718,3.462-10.18,5.091c0,3.232,0,6.463,0,9.695c3.722-1.269,7.925-2.005,12.533-2.179
		c0.14-0.005,0.28-0.004,0.42-0.008C43.348,111.124,42.184,107.167,41.095,103.129L41.095,103.129z"/>
</g>
<g>
	<path fill-rule="evenodd" clip-rule="evenodd" fill="#00AEEF" d="M61.366,114.933c-1.007-3.104-2.047-6.309-2.457-10.07
		c5.42,1.262,11.042,3.245,16.72,5.896c-2.096,4.454-8.232,5.065-13.92,5.238L61.366,114.933z"/>
	<path fill="#FFFFFF" d="M59.324,105.329c5.137,1.235,10.451,3.116,15.821,5.6c-1.9,3.534-6.653,4.477-13.177,4.703
		c-0.087-0.27-0.175-0.539-0.262-0.809C60.75,111.876,59.765,108.839,59.324,105.329 M58.503,104.403
		c0.422,4.548,1.746,8.196,2.948,11.96c6.617-0.188,12.659-0.958,14.646-5.779C70.838,108.105,64.87,105.838,58.503,104.403
		L58.503,104.403z"/>
</g>
<g>
	<path fill-rule="evenodd" clip-rule="evenodd" fill="#00AEEF" d="M88.379,119.991c-3.906,0-7.562-3.08-8.782-7.28
		c1.986,1.03,3.955,2.128,5.865,3.27l0.367,0.219l0.151-0.4c0.46-1.215,0.921-2.518,1.373-3.877l5.767,2.136
		c0.288,1.273,0.468,2.671,0.535,4.161C91.934,119.396,90.16,119.991,88.379,119.991L88.379,119.991z"/>
	<path fill="#FFFFFF" d="M87.576,112.387l5.238,1.94c0.247,1.144,0.406,2.388,0.475,3.709c-1.609,1.06-3.259,1.597-4.909,1.597
		c-3.488,0-6.772-2.572-8.159-6.192c1.712,0.906,3.408,1.86,5.059,2.847l0.734,0.438l0.302-0.799
		C86.737,114.812,87.16,113.625,87.576,112.387 M87.13,111.459c-0.468,1.424-0.961,2.833-1.484,4.215
		c-1.989-1.189-4.202-2.426-6.588-3.643c0.946,4.431,4.705,8.317,9.321,8.317c1.79,0,3.708-0.584,5.642-1.946
		c-0.064-1.672-0.263-3.208-0.596-4.611L87.13,111.459L87.13,111.459z"/>
</g>
<g>
	<path fill-rule="evenodd" clip-rule="evenodd" fill="#00AEEF" d="M140.43,110.55c-6.256-0.73-11.818-0.924-14.215-0.975
		c-0.199-1.126-0.289-2.157-0.28-3.21c2.521-1.942,4.952-2.927,7.227-2.927c3.004,0,5.587,1.859,6.742,4.851
		C140.177,108.996,140.354,109.755,140.43,110.55z"/>
	<path fill="#FFFFFF" d="M133.162,103.795c3.41,0,5.546,2.387,6.409,4.622c0.21,0.545,0.361,1.123,0.45,1.726
		c-5.843-0.661-11.022-0.859-13.502-0.918c-0.15-0.932-0.224-1.802-0.226-2.682C128.7,104.719,131.009,103.795,133.162,103.795
		 M133.162,103.079c-2.19,0-4.757,0.897-7.582,3.108c-0.025,1.384,0.119,2.598,0.336,3.739c3.943,0.074,9.443,0.374,14.902,1.029
		c-0.048-0.957-0.236-1.906-0.58-2.797C139.143,105.323,136.625,103.079,133.162,103.079L133.162,103.079z"/>
</g>
<g>
	<path fill-rule="evenodd" clip-rule="evenodd" fill="#00AEEF" d="M119.796,109.68c-2.012,0-4.958-0.284-8.761-0.844
		c1.218-2.201,3.134-3.405,5.441-3.405c2.599,0,5.225,1.565,6.98,4.123c-1.059,0.008-1.889,0.036-2.459,0.083
		C120.636,109.666,120.233,109.68,119.796,109.68z"/>
	<path fill="#FFFFFF" d="M116.476,105.788c2.291,0,4.609,1.283,6.28,3.417c-0.732,0.013-1.339,0.039-1.788,0.075
		c-0.34,0.028-0.734,0.042-1.172,0.042c-1.901,0-4.649-0.256-8.179-0.763C112.773,106.764,114.469,105.788,116.476,105.788
		 M116.476,105.073c-2.387,0-4.646,1.27-5.989,4.043c3.232,0.487,6.813,0.922,9.309,0.922c0.448,0,0.861-0.014,1.23-0.044
		c0.66-0.054,1.705-0.084,3.021-0.084c0.021,0,0.042,0,0.063,0C122.233,106.81,119.267,105.073,116.476,105.073L116.476,105.073z"/>
</g>
<g>
	<path fill-rule="evenodd" clip-rule="evenodd" fill="#00AEEF" d="M8.34,118.155c-0.63,0.769-1.222,1.564-1.784,2.377
		c0.31-0.025,0.621-0.052,0.948-0.096C7.903,119.796,8.167,119.021,8.34,118.155z"/>
	<path fill="#FFFFFF" d="M8.34,118.155c-0.63,0.769-1.222,1.564-1.784,2.377c0.31-0.025,0.621-0.052,0.948-0.096
		C7.903,119.796,8.167,119.021,8.34,118.155L8.34,118.155z"/>
</g>
<g>
	<path fill-rule="evenodd" clip-rule="evenodd" fill="#00AEEF" d="M20.666,123.354c-2.832-0.038-5.846-1.449-8.732-4.089v-4.41
		c3.882-3.635,8.563-6.471,13.919-8.432c0.61,0.261,1.151,0.576,1.648,0.958v11.517C24.947,120.083,22.649,121.582,20.666,123.354z"
		/>
	<path fill="#FFFFFF" d="M25.841,106.807c0.474,0.212,0.904,0.46,1.302,0.751v11.11c-2.458,1.165-4.679,2.618-6.61,4.324
		c-2.665-0.079-5.504-1.417-8.241-3.887v-4.096C16.083,111.488,20.639,108.73,25.841,106.807 M25.861,106.038
		c-5.502,1.996-10.306,4.904-14.286,8.662c0,1.574,0,3.147,0,4.722c2.79,2.587,5.999,4.291,9.206,4.291c0.007,0,0.013,0,0.021,0
		c2.029-1.833,4.387-3.371,7.057-4.587c0-3.973,0-7.95,0-11.919C27.223,106.693,26.554,106.321,25.861,106.038L25.861,106.038z"/>
</g>
<g>
	<path fill-rule="evenodd" clip-rule="evenodd" fill="#00AEEF" d="M159.598,116.119c-2.268-2.169-7.438-3.873-15.371-5.064
		c-0.062-0.887-0.056-1.773,0.021-2.697c1.333-1.663,3.175-2.506,5.478-2.506c3.73,0,7.891,2.214,10.129,3.6
		c0.323,2.643,0.344,4.987,0.063,6.982C159.812,116.327,159.706,116.222,159.598,116.119z"/>
	<path fill="#FFFFFF" d="M149.726,106.209c3.563,0,7.558,2.087,9.794,3.457c0.264,2.238,0.307,4.252,0.129,6.014
		c-2.383-2.108-7.453-3.768-15.083-4.936c-0.04-0.738-0.03-1.48,0.029-2.248C145.865,106.958,147.545,106.209,149.726,106.209
		 M149.726,105.494c-2.211,0-4.277,0.738-5.825,2.726c-0.101,1.147-0.091,2.185-0.007,3.147c6.722,0.991,12.911,2.575,15.458,5.01
		c0.273,0.262,0.542,0.539,0.806,0.825c0.416-2.249,0.419-4.911,0.033-7.963C157.432,107.512,153.381,105.494,149.726,105.494
		L149.726,105.494z"/>
</g>
<g>
	<path fill-rule="evenodd" clip-rule="evenodd" fill="#00AEEF" d="M166.917,120.961c-1.218,0-2.332-0.258-3.403-0.787
		c-1.813-4.033-1.931-8.186-0.311-11.13c1.062-1.929,2.78-3.164,4.849-3.49c0.59,0.46,1.062,0.862,1.477,1.259
		c2.27,2.172,4.144,4.839,5.569,7.929v3.444l-0.264,0.137C172.573,119.498,169.759,120.961,166.917,120.961L166.917,120.961z"/>
	<path fill="#FFFFFF" d="M167.956,105.933c0.523,0.412,0.949,0.778,1.325,1.138c2.22,2.124,4.056,4.73,5.458,7.75v3.147
		l-0.071,0.037c-2.227,1.157-4.997,2.598-7.751,2.598c-1.118,0-2.144-0.228-3.129-0.694c-1.718-3.894-1.822-7.875-0.271-10.692
		C164.498,107.434,166.066,106.277,167.956,105.933 M168.151,105.177c-5.581,0.759-8.413,7.608-4.91,15.259
		c1.225,0.629,2.46,0.882,3.676,0.882c3.123,0,6.125-1.668,8.538-2.916c0-1.247,0-2.493,0-3.739c-1.41-3.077-3.312-5.845-5.68-8.109
		C169.27,106.069,168.72,105.616,168.151,105.177L168.151,105.177z"/>
</g>
<g>
	<path fill-rule="evenodd" clip-rule="evenodd" fill="#00AEEF" d="M78.311,133.388c-0.414,0-0.821-0.02-1.233-0.06
		c1.216-1.854,2.369-3.768,3.431-5.697l0.165-0.298l-0.291-0.179c-3.72-2.291-7.508-4.302-11.26-5.982
		c-0.138-0.943-0.199-1.785-0.191-2.622c1.957-1.995,4.012-3.048,5.951-3.048c2.372,0,4.512,1.549,5.873,4.251
		c1.772,3.519,2.085,9.062-1.175,13.574C79.151,133.367,78.725,133.388,78.311,133.388z"/>
	<path fill="#FFFFFF" d="M74.883,115.86c2.23,0,4.255,1.478,5.553,4.054c1.706,3.388,2.021,8.705-1.051,13.071
		c-0.364,0.03-0.723,0.045-1.074,0.045c-0.202,0-0.402-0.005-0.603-0.015c1.1-1.702,2.145-3.451,3.114-5.212l0.329-0.597
		l-0.581-0.357c-3.674-2.262-7.414-4.253-11.121-5.923c-0.108-0.793-0.16-1.515-0.161-2.229
		C71.146,116.84,73.075,115.86,74.883,115.86 M74.883,115.144c-1.932,0-4.092,0.961-6.307,3.258c-0.021,1.1,0.078,2.081,0.222,3.016
		c4.346,1.933,8.235,4.093,11.397,6.04c-1.206,2.19-2.457,4.235-3.735,6.156c0.579,0.082,1.19,0.132,1.851,0.132
		c0.462,0,0.948-0.024,1.464-0.079C85.331,126.167,81.422,115.144,74.883,115.144L74.883,115.144z"/>
</g>
<g>
	<path fill-rule="evenodd" clip-rule="evenodd" fill="#00AEEF" d="M65.578,119.688c-0.932-0.365-1.873-0.712-2.814-1.039
		c0.236-0.012,0.476-0.019,0.721-0.019c0.569,0,1.166,0.035,1.777,0.102C65.373,119.045,65.476,119.366,65.578,119.688z"/>
	<path fill="#FFFFFF" d="M63.485,118.272c-0.855,0-1.637,0.074-2.362,0.204c1.719,0.554,3.398,1.166,5.025,1.823
		c-0.205-0.636-0.397-1.284-0.625-1.897C64.797,118.313,64.121,118.272,63.485,118.272L63.485,118.272z"/>
</g>
<g>
	<path fill-rule="evenodd" clip-rule="evenodd" fill="#00AEEF" d="M110.216,140.431c-1.999-0.149-3.194-1.082-4.459-2.068
		c-0.955-0.745-1.941-1.513-3.29-1.928c-0.819-3.652-0.98-6.774-0.48-9.294c4.855,3.075,10.049,6.076,15.085,8.715
		c-0.774,0.517-1.546,1.036-2.318,1.555C113.248,138.423,111.741,139.437,110.216,140.431z"/>
	<path fill="#FFFFFF" d="M102.247,127.728c4.562,2.873,9.406,5.672,14.127,8.165c-0.607,0.406-1.213,0.814-1.819,1.221
		c-1.447,0.973-2.941,1.978-4.431,2.951c-1.821-0.17-2.952-1.052-4.146-1.983c-0.934-0.729-1.897-1.479-3.206-1.923
		C102.056,132.886,101.88,130.058,102.247,127.728 M101.748,126.564c-0.607,2.522-0.567,5.868,0.417,10.155
		c3.202,0.873,4.299,3.851,8.146,4.076c2.512-1.636,4.972-3.323,7.462-4.978C112.089,132.861,106.556,129.627,101.748,126.564
		L101.748,126.564z"/>
</g>
<g>
	<path fill-rule="evenodd" clip-rule="evenodd" fill="#00AEEF" d="M1.025,134.76c0.211-1.125,0.472-2.234,0.78-3.323
		C1.59,132.551,1.335,133.67,1.025,134.76z"/>
	<path fill="#FFFFFF" d="M2.815,127.417c-1.333,3.251-2.2,6.712-2.587,10.296c0.05,0.007,0.095,0.019,0.146,0.025
		C1.63,134.74,2.302,131.158,2.815,127.417L2.815,127.417z"/>
</g>
<g>
	<path fill-rule="evenodd" clip-rule="evenodd" fill="#00AEEF" d="M95.149,137.195c-1.686-1.069-3.092-1.991-4.128-2.683
		l-0.319-0.213l-0.19,0.333c-0.283,0.495-0.575,0.972-0.867,1.449l-0.25,0.41c-2.079-0.649-4.267-1.711-6.209-3.014
		c0.031-1.88,0.501-3.294,0.999-4.788c0.489-1.47,0.994-2.988,1.034-4.96l0.871-0.357c2.733-1.13,6.134-2.537,9.487-2.537
		c0.445,0,0.883,0.025,1.309,0.074c-0.193,0.772-0.417,1.467-0.667,2.072l-0.102,0.247l0.333,0.268
		c1.063,0.73,2.171,1.469,3.322,2.22v9.806C98.441,136.464,96.887,137.026,95.149,137.195z"/>
	<path fill="#FFFFFF" d="M95.578,121.193c0.289,0,0.575,0.011,0.856,0.032c-0.164,0.595-0.346,1.138-0.545,1.619l-0.205,0.494
		l0.416,0.336l0.129,0.103l0.02,0.016l0.021,0.015c0.965,0.662,2.022,1.368,3.145,2.103v9.425c-1.215,0.82-2.618,1.321-4.179,1.491
		c-1.777-1.129-3.159-2.039-4.016-2.612l-0.639-0.426l-0.38,0.667c-0.281,0.492-0.571,0.966-0.861,1.439l-0.104,0.171
		c-1.908-0.626-3.897-1.597-5.688-2.776c0.059-1.731,0.505-3.072,0.976-4.486c0.478-1.437,0.972-2.919,1.046-4.829
		c0.215-0.088,0.434-0.179,0.656-0.271C88.931,122.585,92.295,121.193,95.578,121.193 M95.578,120.478
		c-3.881,0-7.721,1.803-10.713,3.012c-0.004,4.066-2.035,6.111-2.038,10.178c1.796,1.225,4.172,2.488,6.729,3.248
		c0.423-0.701,0.854-1.384,1.266-2.105c1.059,0.707,2.504,1.654,4.238,2.753c1.774-0.154,3.506-0.705,5.07-1.856
		c0-3.394,0-6.789,0-10.183c-1.208-0.786-2.367-1.558-3.456-2.305c-0.038-0.03-0.079-0.062-0.125-0.1
		c0.328-0.792,0.581-1.656,0.777-2.51C96.745,120.519,96.161,120.478,95.578,120.478L95.578,120.478z"/>
</g>
<g>
	<path fill-rule="evenodd" clip-rule="evenodd" fill="#00AEEF" d="M175.349,136.534c-0.55,0-1.105-0.045-1.692-0.138
		c-1.718-3.381-3-7.553-3.916-12.741c2.303-1.544,4.919-2.426,7.211-2.426c0.093,0,0.186,0.001,0.278,0.004
		c1.025,4.849,0.949,9.976-0.221,14.846c-0.024,0.101-0.089,0.329-0.089,0.329C176.383,136.493,175.867,136.534,175.349,136.534
		L175.349,136.534z"/>
	<path fill="#FFFFFF" d="M176.939,121.587c0.953,4.714,0.859,9.684-0.276,14.408c-0.008,0.031-0.016,0.062-0.023,0.093
		c-0.439,0.059-0.864,0.088-1.29,0.088c-0.475,0-0.954-0.035-1.456-0.106c-1.635-3.27-2.867-7.284-3.758-12.246
		C172.328,122.401,174.783,121.59,176.939,121.587 M176.953,120.871c-2.624,0-5.424,1.111-7.603,2.618
		c0.852,4.913,2.109,9.429,4.071,13.23c0.707,0.122,1.342,0.172,1.928,0.172c0.675,0,1.283-0.067,1.856-0.168
		c0.048-0.188,0.106-0.37,0.152-0.56c1.236-5.145,1.236-10.409,0.165-15.274C177.334,120.877,177.144,120.871,176.953,120.871
		L176.953,120.871z"/>
</g>
<g>
	<path fill-rule="evenodd" clip-rule="evenodd" fill="#00AEEF" d="M6.462,137.866c-0.891,0-1.8-0.135-2.704-0.402
		c-0.618-5.101,0.471-9.796,2.929-12.596c1.33-1.515,2.923-2.316,4.607-2.316c2.238,0,4.424,1.397,6.334,4.045
		c-1.898,2.452-3.292,5.237-4.146,8.286C11.333,136.834,8.908,137.866,6.462,137.866C6.463,137.866,6.463,137.866,6.462,137.866z"/>
	<path fill="#FFFFFF" d="M11.294,122.91c2.058,0,4.085,1.271,5.887,3.683c-1.822,2.409-3.172,5.128-4.016,8.094
		c-2.062,1.847-4.376,2.821-6.703,2.821c-0.783,0-1.58-0.108-2.376-0.323c-0.544-4.909,0.516-9.399,2.87-12.08
		C8.216,123.669,9.716,122.91,11.294,122.91 M11.294,122.194c-4.919,0-9.042,6.509-7.862,15.544c1.044,0.333,2.057,0.485,3.03,0.485
		c2.804,0,5.294-1.264,7.337-3.146c0.856-3.104,2.298-5.975,4.275-8.47C15.933,123.541,13.531,122.194,11.294,122.194
		L11.294,122.194z"/>
</g>
<g>
	<path fill-rule="evenodd" clip-rule="evenodd" fill="#00AEEF" d="M161.221,141.193c2.352-2.752,3.452-5.833,3.961-7.956
		c0.662-2.752,0.544-5.707-0.334-8.595c3.002,1.621,5.914,5.521,5.185,11.855c-0.943,0.542-1.838,1.143-2.705,1.726
		c-1.796,1.208-3.652,2.456-5.969,3.17C161.312,141.327,161.267,141.26,161.221,141.193z"/>
	<path fill="#FFFFFF" d="M165.434,125.419c2.579,1.763,4.841,5.343,4.262,10.859c-0.896,0.523-1.745,1.094-2.569,1.648
		c-1.646,1.106-3.213,2.16-5.123,2.87c2.048-2.637,3.044-5.474,3.525-7.475C166.14,130.787,166.104,128.086,165.434,125.419
		 M164.246,123.959c1.009,2.84,1.357,6,0.589,9.195c-0.519,2.161-1.65,5.28-4.065,8.013c0.146,0.215,0.296,0.425,0.437,0.645
		c3.69-1.06,6.12-3.38,9.16-5.093C171.193,130.105,168.078,125.557,164.246,123.959L164.246,123.959z"/>
</g>
<g>
	<path fill-rule="evenodd" clip-rule="evenodd" fill="#00AEEF" d="M12.682,144.71c-0.29-0.479-0.571-0.964-0.849-1.441
		c-0.294-0.506-0.588-1.013-0.89-1.51c0.476-1.676,1.128-3.087,1.944-4.214c-0.321,1.9-0.435,3.846-0.339,5.803
		C12.571,143.81,12.616,144.263,12.682,144.71z"/>
	<path fill="#FFFFFF" d="M12.301,139.204c-0.134,1.305-0.174,2.626-0.119,3.953c-0.013-0.022-0.026-0.045-0.039-0.067
		c-0.269-0.463-0.538-0.926-0.812-1.382C11.6,140.787,11.925,139.952,12.301,139.204 M13.503,136.264
		c-1.22,1.232-2.257,3.045-2.947,5.549c0.974,1.59,1.853,3.274,2.917,4.774c-0.312-1.022-0.512-2.101-0.568-3.256
		C12.787,140.9,12.997,138.528,13.503,136.264L13.503,136.264z"/>
</g>
<g>
	<path fill-rule="evenodd" clip-rule="evenodd" fill="#00AEEF" d="M150.946,152.878c-0.837,0-1.741-0.065-2.692-0.192
		c-0.498-1.751-1.057-3.783-1.543-5.892c0.841,0.085,1.643,0.128,2.391,0.128c1.502,0,2.842-0.174,3.981-0.516
		c2.075-0.623,3.952-1.567,5.588-2.811c0.631,2.594,0.303,4.98-0.922,6.611C156.417,151.979,154.129,152.878,150.946,152.878z"/>
	<g>
		<path fill="#FFFFFF" d="M158.44,144.21c0.442,2.28,0.102,4.348-0.977,5.782c-1.261,1.677-3.453,2.528-6.517,2.528
			c-0.752,0-1.562-0.053-2.412-0.159c-0.442-1.559-0.926-3.327-1.361-5.165c0.672,0.056,1.318,0.084,1.929,0.084
			c1.537,0,2.911-0.179,4.084-0.531C155.116,146.17,156.878,145.318,158.44,144.21 M158.877,142.979
			c-1.56,1.27-3.487,2.362-5.897,3.085c-1.137,0.342-2.44,0.5-3.878,0.5c-0.899,0-1.852-0.062-2.851-0.181
			c0.509,2.275,1.105,4.46,1.723,6.625c1.077,0.155,2.066,0.228,2.972,0.228C158.662,153.236,160.315,147.944,158.877,142.979
			L158.877,142.979z"/>
	</g>
</g>
<g>
	<path fill-rule="evenodd" clip-rule="evenodd" fill="#00AEEF" d="M72.335,151.579c-3.069-0.51-5.331-1.95-6.899-4.39
		c3.673-3.377,7.094-7.31,10.174-11.694c0.597,0.122,1.174,0.274,1.722,0.453c-0.474,2.698-1.447,4.964-2.39,7.159
		C73.854,145.642,72.729,148.261,72.335,151.579z"/>
	<path fill="#FFFFFF" d="M75.767,135.894c0.396,0.087,0.783,0.188,1.157,0.3c-0.48,2.511-1.371,4.584-2.31,6.771
		c-1.058,2.463-2.149,5.004-2.586,8.195c-2.674-0.523-4.687-1.811-6.125-3.915C69.456,143.947,72.77,140.132,75.767,135.894
		 M75.451,135.098c-3.396,4.864-6.969,8.833-10.476,12.028c1.578,2.601,4.006,4.351,7.675,4.863
		c0.65-6.475,4.103-10.146,5.085-16.283C76.979,135.441,76.216,135.244,75.451,135.098L75.451,135.098z"/>
</g>
<g>
	<path fill-rule="evenodd" clip-rule="evenodd" fill="#00AEEF" d="M75.986,151.631c-0.662-3.125,1.357-7.422,3.145-11.225
		c0.715-1.521,1.394-2.964,1.895-4.295c2.098,0.406,3.673,1.306,5.337,2.256c0.463,0.265,0.927,0.53,1.402,0.783
		c-2.905,4.512-6.142,8.708-9.626,12.48H75.986z"/>
	<path fill="#FFFFFF" d="M81.251,136.523c1.899,0.42,3.377,1.265,4.934,2.155c0.35,0.2,0.706,0.403,1.069,0.603
		c-2.81,4.326-5.926,8.356-9.272,11.993h-1.698c-0.462-2.986,1.461-7.08,3.171-10.715C80.123,139.138,80.758,137.786,81.251,136.523
		 M80.794,135.706c-1.77,4.897-6.313,11.712-5.09,16.283c0.864,0,1.727,0,2.591,0c3.5-3.775,6.87-8.097,9.982-12.974
		C85.9,137.794,83.871,136.222,80.794,135.706L80.794,135.706z"/>
</g>
<g>
	<path fill-rule="evenodd" clip-rule="evenodd" fill="#00AEEF" d="M123.777,152.498c-3.846-1.625-7.912-3.554-12.092-5.736v-3.768
		c2.614-2.281,6.045-4.857,9.656-4.969c2.411,1.186,4.762,2.273,6.991,3.233C129.279,147.689,126.731,150.483,123.777,152.498z"/>
	<path fill="#FFFFFF" d="M121.265,138.385c2.322,1.141,4.587,2.189,6.742,3.122c0.821,5.981-1.513,8.664-4.271,10.584
		c-3.724-1.58-7.653-3.444-11.692-5.547v-3.388C114.574,140.96,117.853,138.53,121.265,138.385 M121.421,137.665
		c-3.492,0.07-6.81,2.285-10.093,5.167c0,1.381,0,2.764,0,4.147c3.949,2.067,8.176,4.109,12.489,5.924
		c3.341-2.237,5.873-5.286,4.84-11.895C126.27,139.984,123.844,138.858,121.421,137.665L121.421,137.665z"/>
</g>
<g>
	<path fill-rule="evenodd" clip-rule="evenodd" fill="#00AEEF" d="M140.803,153.514c-4.358,0-7.063-3.335-7.812-6.641
		c-0.283-1.251-0.302-2.538-0.058-3.747c4.068,1.547,7.729,2.634,10.889,3.234c0.385,2.21,0.623,4.312,0.725,6.409
		C143.253,153.263,141.995,153.514,140.803,153.514C140.803,153.514,140.803,153.514,140.803,153.514z"/>
	<path fill="#FFFFFF" d="M133.211,143.613c3.823,1.435,7.282,2.459,10.3,3.051c0.343,2.015,0.562,3.941,0.665,5.86
		c-1.167,0.419-2.3,0.631-3.374,0.631c-4.161,0-6.746-3.195-7.462-6.361C133.1,145.735,133.057,144.65,133.211,143.613
		 M132.676,142.645c-0.352,1.389-0.357,2.879-0.034,4.308c0.831,3.67,3.766,6.919,8.161,6.919c1.257,0,2.633-0.266,4.114-0.863
		c-0.107-2.471-0.394-4.764-0.785-6.954C140.674,145.42,136.778,144.224,132.676,142.645L132.676,142.645z"/>
</g>
<g>
	<path fill-rule="evenodd" clip-rule="evenodd" fill="#00AEEF" d="M107.857,144.714c-3.16-1.735-6.364-3.597-9.548-5.548
		c3.876,0.116,7.139,2.077,9.591,3.837C107.864,143.498,107.85,144.046,107.857,144.714z"/>
	<path fill="#FFFFFF" d="M99.822,139.668c3.042,0.482,5.653,2.05,7.708,3.511c-0.018,0.287-0.027,0.593-0.031,0.93
		C104.955,142.703,102.384,141.216,99.822,139.668 M97.948,138.803c-0.284,0-0.571,0.01-0.861,0.03
		c3.104,1.924,6.91,4.185,11.14,6.491c-0.022-0.869-0.022-1.715,0.046-2.493C105.485,140.812,102.035,138.803,97.948,138.803
		L97.948,138.803z"/>
</g>
<g>
	<path fill-rule="evenodd" clip-rule="evenodd" fill="#00AEEF" d="M168.001,151.642c-2.407-0.085-4.147-0.377-5.441-0.915
		c-0.723-8.178,4.619-10.056,11.719-11.57c0.399,0.634,0.66,1.5,0.796,2.637C173.381,145.599,171.002,148.911,168.001,151.642z"/>
	<path fill="#FFFFFF" d="M174.1,139.561c0.291,0.548,0.491,1.266,0.607,2.177c-1.65,3.677-3.95,6.884-6.839,9.54
		c-2.166-0.085-3.765-0.343-4.97-0.801C162.326,142.87,167.369,141.015,174.1,139.561 M174.44,138.757
		c-6.727,1.42-13.118,3.174-12.216,12.215c1.597,0.717,3.667,0.961,5.911,1.032c3.082-2.776,5.562-6.2,7.307-10.155
		C175.304,140.622,175.015,139.546,174.44,138.757L174.44,138.757z"/>
</g>
<g>
	<path fill-rule="evenodd" clip-rule="evenodd" fill="#00AEEF" d="M4.746,156.974c-2.65-3.826-4.113-8.208-4.349-13.031
		c-0.037-0.759-0.048-1.556-0.034-2.489c0.908-0.334,1.864-0.503,2.846-0.503c4.105,0,8.654,3.091,9.02,9.87
		c-0.878,0.78-1.891,1.465-2.872,2.128C7.677,154.084,5.944,155.257,4.746,156.974z"/>
	<path fill="#FFFFFF" d="M3.209,141.308c3.906,0,8.232,2.932,8.652,9.358c-0.824,0.713-1.74,1.333-2.705,1.985
		c-1.571,1.063-3.188,2.157-4.398,3.704c-2.434-3.671-3.78-7.848-4.004-12.43c-0.033-0.684-0.045-1.398-0.036-2.217
		C1.517,141.442,2.353,141.308,3.209,141.308 M3.209,140.592c-1.091,0-2.178,0.204-3.199,0.614c-0.018,0.913-0.015,1.83,0.03,2.754
		c0.249,5.087,1.863,9.705,4.718,13.65c1.825-3.002,5.312-4.337,7.836-6.638C12.296,144.079,7.717,140.592,3.209,140.592
		L3.209,140.592z"/>
</g>
<g>
	<path fill-rule="evenodd" clip-rule="evenodd" fill="#00AEEF" d="M137.065,157.148c-3.337-0.885-6.955-2.101-10.769-3.618
		c1.541-1.464,3.289-2.265,4.967-2.265c2.423,0,4.546,1.67,6.145,4.832c-0.085,0.287-0.18,0.564-0.274,0.842L137.065,157.148z"/>
	<path fill="#FFFFFF" d="M131.264,151.624c2.247,0,4.235,1.558,5.76,4.508c-0.061,0.197-0.126,0.391-0.191,0.584
		c-3.075-0.831-6.386-1.94-9.868-3.306C128.331,152.251,129.828,151.624,131.264,151.624 M131.264,150.908
		c-2.03,0-4.026,1.103-5.604,2.752c3.887,1.566,7.813,2.923,11.639,3.919c0.164-0.506,0.344-0.996,0.493-1.516
		C135.953,152.35,133.585,150.908,131.264,150.908L131.264,150.908z"/>
</g>
<g>
	<path fill-rule="evenodd" clip-rule="evenodd" fill="#00AEEF" d="M29.881,170.61c-0.526-0.082-1.054-0.172-1.583-0.27l-0.268-0.257
		c-1.01-0.972-2.053-1.976-3.945-2.146c-0.914-4.393-0.838-8.253,0.217-11.208c3.882,1.433,8.604,2.288,13.381,2.423v6.881
		c-0.931,0.535-1.815,1.127-2.672,1.701C33.435,168.79,31.806,169.88,29.881,170.61z"/>
	<path fill="#FFFFFF" d="M24.523,157.189c3.755,1.337,8.247,2.147,12.803,2.309v6.329c-0.875,0.513-1.706,1.069-2.514,1.609
		c-1.605,1.076-3.125,2.093-4.97,2.806c-0.458-0.072-0.917-0.15-1.376-0.235c-0.062-0.06-0.126-0.121-0.188-0.181
		c-0.962-0.926-2.041-1.964-3.895-2.215C23.571,163.554,23.62,159.979,24.523,157.189 M24.092,156.268
		c-1.154,2.949-1.37,7.06-0.302,12.007c2.151,0.098,3.181,1.309,4.337,2.397c0.598,0.112,1.196,0.214,1.791,0.306
		c3.125-1.162,5.379-3.193,8.122-4.737c0-2.48,0-4.959,0-7.438C33.58,158.71,28.532,157.967,24.092,156.268L24.092,156.268z"/>
</g>
<g>
	<path fill-rule="evenodd" clip-rule="evenodd" fill="#00AEEF" d="M59.675,165.897c-0.98-2.8-1.951-6.253-1.94-10.717
		c1.91-2.121,4.436-3.288,7.126-3.288c2.238,0,4.462,0.804,6.441,2.327c0.267,1.819-0.018,3.078-0.374,4.296
		c-3.495,2.939-7.098,5.427-10.71,7.396C60.219,165.912,59.796,165.902,59.675,165.897z"/>
	<path fill="#FFFFFF" d="M64.861,152.25c2.114,0,4.221,0.748,6.107,2.165c0.214,1.622-0.032,2.783-0.353,3.896
		c-3.424,2.871-6.949,5.305-10.484,7.24l-0.09-0.002c-0.036-0.001-0.073-0.001-0.109-0.002c-0.932-2.701-1.831-6.006-1.839-10.229
		C59.922,153.337,62.316,152.25,64.861,152.25 M64.861,151.534c-2.787,0-5.46,1.208-7.483,3.509
		c-0.031,4.448,0.884,7.939,2.039,11.198c0.308,0.021,0.593,0.021,0.889,0.031c3.604-1.957,7.29-4.477,10.936-7.552
		c0.387-1.308,0.715-2.676,0.393-4.695C69.498,152.343,67.141,151.534,64.861,151.534L64.861,151.534z"/>
</g>
<g>
	<path fill-rule="evenodd" clip-rule="evenodd" fill="#00AEEF" d="M18.244,167.393c-3.06-1.289-5.785-2.872-8.101-4.704
		c-1.202-0.951-2.331-2.009-3.358-3.147c1.727-4.14,5.642-6.636,10.535-6.711l0.071,0.063c0.097,0.087,0.195,0.174,0.3,0.257
		c1.059,0.838,2.273,1.596,3.708,2.315v10.557C20.412,166.527,19.328,166.998,18.244,167.393z"/>
	<path fill="#FFFFFF" d="M17.187,153.19c0.091,0.081,0.184,0.162,0.282,0.241c1.029,0.814,2.201,1.554,3.572,2.255v10.117
		c-0.881,0.44-1.833,0.852-2.788,1.206c-2.978-1.267-5.631-2.813-7.889-4.6c-1.126-0.891-2.188-1.878-3.16-2.938
		C8.901,155.631,12.589,153.306,17.187,153.19 M17.453,152.471c-5.012,0.031-9.266,2.538-11.084,7.143
		c1.06,1.194,2.24,2.318,3.552,3.356c2.514,1.989,5.342,3.567,8.314,4.807c1.281-0.46,2.487-0.996,3.522-1.536
		c0-3.664,0-7.33,0-10.997c-1.385-0.681-2.688-1.46-3.843-2.374C17.75,152.741,17.608,152.603,17.453,152.471L17.453,152.471z"/>
</g>
<g>
	<path fill-rule="evenodd" clip-rule="evenodd" fill="#00AEEF" d="M47.748,169.251c-2.464,0-4.592-1.068-6.326-3.175
		c-0.662-2.635-0.88-4.967-0.649-6.94c1.732-0.069,3.3-0.231,4.664-0.483c2.457-0.455,5.488-1.6,8.557-3.231
		c0.337,0.25,0.662,0.512,0.969,0.78c-0.315,2.192,0.124,3.645,0.548,5.051c0.423,1.401,0.823,2.727,0.519,4.786
		C53.107,168.141,50.246,169.251,47.748,169.251C47.748,169.251,47.748,169.251,47.748,169.251z"/>
	<path fill="#FFFFFF" d="M53.959,155.845c0.214,0.164,0.422,0.331,0.623,0.502c-0.273,2.161,0.164,3.608,0.586,5.01
		c0.4,1.327,0.78,2.583,0.528,4.48c-2.818,2-5.562,3.056-7.949,3.056c-2.328,0-4.345-1.003-5.998-2.983
		c-0.603-2.426-0.822-4.585-0.653-6.43c1.627-0.076,3.106-0.235,4.406-0.475C47.939,158.554,50.928,157.436,53.959,155.845
		 M54.023,155.001c-3.422,1.841-6.423,2.888-8.652,3.301c-1.413,0.261-3.09,0.428-4.915,0.488c-0.282,1.981-0.125,4.447,0.638,7.451
		c1.946,2.398,4.249,3.368,6.653,3.368c2.87,0,5.885-1.382,8.613-3.368c0.717-4.446-1.729-5.733-1.015-10.178
		C54.916,155.679,54.473,155.326,54.023,155.001L54.023,155.001z"/>
</g>
<g>
	<path fill-rule="evenodd" clip-rule="evenodd" fill="#00AEEF" d="M153.403,158.733c0.033-1.162,0.062-2.351,0.024-3.464
		c0.521-0.24,1.044-0.505,1.57-0.771c1.764-0.895,3.587-1.819,5.464-1.819c0.854,0,1.66,0.187,2.459,0.569
		c0.12,0.669,0.262,1.304,0.395,1.863c-2.102,1.245-4.366,2.236-6.736,2.947C155.601,158.352,154.559,158.574,153.403,158.733z"/>
	<path fill="#FFFFFF" d="M160.461,153.037c0.74,0,1.444,0.15,2.14,0.458c0.095,0.509,0.201,0.996,0.304,1.441
		c-2.013,1.168-4.173,2.102-6.43,2.779c-0.84,0.252-1.731,0.451-2.703,0.602c0.025-0.948,0.043-1.907,0.019-2.824
		c0.46-0.217,0.919-0.45,1.367-0.677C156.885,153.941,158.669,153.037,160.461,153.037 M160.461,152.321
		c-2.607,0-5.02,1.658-7.401,2.722c0.058,1.301,0.013,2.703-0.026,4.1c1.267-0.156,2.489-0.394,3.647-0.741
		c2.53-0.759,4.883-1.812,7.042-3.118c-0.178-0.741-0.348-1.491-0.482-2.276C162.287,152.519,161.362,152.321,160.461,152.321
		L160.461,152.321z"/>
</g>
<g>
	<path fill-rule="evenodd" clip-rule="evenodd" fill="#00AEEF" d="M73.987,154.382h1.471c-0.554,0.547-1.106,1.077-1.65,1.585
		C73.868,155.446,73.928,154.918,73.987,154.382z"/>
	<path fill="#FFFFFF" d="M74.581,154.74c-0.102,0.099-0.204,0.197-0.306,0.294c0.011-0.098,0.021-0.196,0.033-0.294H74.581
		 M76.324,154.024c-0.886,0-1.772,0-2.658,0c-0.105,0.978-0.217,1.929-0.323,2.857C74.344,155.973,75.337,155.019,76.324,154.024
		L76.324,154.024z"/>
</g>
<g>
	<path fill-rule="evenodd" clip-rule="evenodd" fill="#00AEEF" d="M149.516,158.99c-2.69,0-5.688-0.339-8.92-1.008
		c1.594-1.841,3.49-2.774,5.644-2.774c1.353,0,2.841,0.365,4.427,1.084v2.677C150.287,158.983,149.903,158.99,149.516,158.99z"/>
	<path fill="#FFFFFF" d="M146.24,155.565c1.242,0,2.609,0.322,4.069,0.959v2.098c-0.262,0.006-0.527,0.01-0.793,0.01
		c-2.494,0-5.257-0.294-8.229-0.876C142.722,156.284,144.352,155.565,146.24,155.565 M146.24,154.85c-2.697,0-4.734,1.36-6.293,3.36
		c3.331,0.724,6.554,1.138,9.57,1.138c0.509,0,1.012-0.012,1.509-0.036c0-1.083,0-2.166,0-3.248
		C149.233,155.22,147.647,154.85,146.24,154.85L146.24,154.85z"/>
</g>
<g>
	<path fill-rule="evenodd" clip-rule="evenodd" fill="#00AEEF" d="M39.109,171.32c-1.568,0-3.185-0.066-4.819-0.199
		c1.838-1.013,3.827-1.583,5.587-1.583c1.717,0,3.146,0.534,4.177,1.551C42.425,171.243,40.765,171.32,39.109,171.32z"/>
	<path fill="#FFFFFF" d="M39.877,169.896c0.96,0,2.196,0.181,3.272,0.911c-1.337,0.103-2.69,0.155-4.041,0.155
		c-1.136,0-2.296-0.036-3.471-0.105C37.072,170.236,38.544,169.896,39.877,169.896 M39.877,169.181
		c-2.212,0-4.646,0.849-6.711,2.199c2.052,0.201,4.052,0.298,5.942,0.298c2.045,0,3.944-0.116,5.676-0.302
		C43.588,169.834,41.819,169.181,39.877,169.181L39.877,169.181z"/>
</g>
<path fill="#00AEEF" stroke="#FFFFFF" stroke-width="0.7155" stroke-miterlimit="10" d="M70.63,85.456
	c3.489-0.177,6.011-1.615,8.748-2.551c-3.246-0.347-6.335-0.911-7.803-1.828c-1.858-1.162-3.939-2.208-5.59-2.978
	c0.332,2.242,0.826,4.32,1.441,6.277c0.045,0.144,0.087,0.292,0.133,0.435c0.186,0.007-0.057,5.066-0.057,5.066L70.63,85.456z"/>
<path fill="#00AEEF" stroke="#FFFFFF" stroke-width="0.7155" stroke-miterlimit="10" d="M63.426,76.964
	c-0.277-0.116-0.437-0.18-0.437-0.18s-5.723-2.861-6.201-0.477c-0.478,2.384,1.592,5.148,1.592,5.148v6.5l3.5-4.25l2.691,0.335
	C64.744,81.126,63.744,79.385,63.426,76.964z"/>
</svg>
